{"glyphs":{"0":{"ha":399,"x_min":28,"x_max":371,"o":"m 199 -4 q 72 47 117 -4 q 28 175 28 97 l 28 749 q 72 878 28 828 q 199 929 117 929 q 325 878 279 929 q 371 749 371 828 l 371 175 q 325 47 371 97 q 199 -4 279 -4 m 192 188 q 193 162 192 171 q 199 153 194 153 q 206 162 204 153 q 207 188 207 171 l 207 268 l 192 268 l 192 188 m 207 453 l 207 738 q 206 762 207 753 q 199 771 204 771 q 193 762 194 771 q 192 738 192 753 l 192 453 l 207 453 z "},"1":{"ha":325,"x_min":28,"x_max":297,"o":"m 135 704 l 89 683 l 28 829 l 135 879 l 135 917 l 297 917 l 297 0 l 135 0 l 135 704 z "},"2":{"ha":399,"x_min":28,"x_max":371,"o":"m 33 269 q 183 492 33 413 q 201 508 196 499 q 207 535 207 518 l 207 739 q 206 763 207 754 q 200 771 204 771 q 193 763 194 771 q 192 739 192 754 l 192 636 l 28 636 l 28 749 q 74 878 28 828 q 200 929 119 929 q 326 878 282 929 q 371 749 371 828 l 371 535 q 338 425 371 469 q 257 356 306 381 q 210 323 225 339 q 196 279 196 307 l 196 163 l 361 163 l 361 0 l 33 0 l 33 269 z "},"3":{"ha":404,"x_min":28,"x_max":376,"o":"m 207 -12 q 80 38 125 -12 q 35 168 35 88 l 35 281 l 199 281 l 199 185 q 207 146 199 146 q 213 157 211 146 q 214 185 214 168 l 214 356 q 211 381 214 374 q 197 393 208 389 q 156 397 185 397 l 156 546 l 179 546 q 201 551 194 546 q 207 571 207 556 l 207 739 q 206 763 207 754 q 200 771 204 771 q 193 763 194 771 q 192 739 192 754 l 192 636 l 28 636 l 28 749 q 74 878 28 828 q 200 929 119 929 q 326 878 282 929 q 371 749 371 828 l 371 547 q 358 479 371 511 q 376 411 376 450 l 376 168 q 332 38 376 88 q 207 -12 288 -12 z "},"4":{"ha":464,"x_min":28,"x_max":436,"o":"m 203 286 l 28 286 l 28 917 l 192 917 l 192 450 l 203 450 l 203 585 l 365 585 l 365 450 l 436 450 l 436 286 l 365 286 l 365 0 l 203 0 l 203 286 z "},"5":{"ha":399,"x_min":28,"x_max":371,"o":"m 200 0 q 74 51 119 0 q 28 181 28 101 l 28 281 l 192 281 l 192 190 q 193 167 192 175 q 200 158 194 158 q 206 167 204 158 q 207 190 207 175 l 207 424 q 202 450 207 444 q 176 456 197 456 q 71 495 111 456 q 31 603 31 535 l 31 917 l 358 917 l 358 754 l 193 754 l 193 629 q 198 607 193 614 q 222 600 203 600 q 327 548 283 600 q 371 424 371 496 l 371 181 q 326 51 371 101 q 200 0 282 0 z "},"6":{"ha":399,"x_min":28,"x_max":371,"o":"m 199 -12 q 72 38 117 -12 q 28 167 28 88 l 28 749 q 72 878 28 828 q 199 929 117 929 q 325 878 279 929 q 371 749 371 828 l 371 636 l 207 636 l 207 740 q 206 765 207 760 q 199 771 204 771 q 192 763 193 771 q 192 740 192 756 l 192 619 l 199 619 q 325 569 279 619 q 371 439 371 518 l 371 167 q 325 38 371 88 q 199 -12 279 -12 m 192 178 q 192 152 192 161 q 199 143 193 143 q 206 149 204 143 q 207 178 207 156 l 207 431 q 206 456 207 450 q 199 461 204 461 q 192 453 193 461 q 192 431 192 446 l 192 178 z "},"7":{"ha":506,"x_min":28,"x_max":478,"o":"m 279 754 l 28 754 l 28 917 l 478 917 l 283 0 l 118 0 l 279 754 z "},"8":{"ha":399,"x_min":28,"x_max":371,"o":"m 199 -12 q 72 38 117 -12 q 28 167 28 88 l 28 350 q 53 451 28 410 q 28 553 28 496 l 28 749 q 72 878 28 828 q 199 929 117 929 q 325 878 279 929 q 371 749 371 828 l 371 553 q 346 451 371 496 q 371 350 371 410 l 371 167 q 325 38 371 88 q 199 -12 279 -12 m 192 176 q 192 151 192 160 q 199 143 193 143 q 206 149 204 143 q 207 176 207 156 l 207 342 q 206 367 207 361 q 199 372 204 372 q 192 365 193 372 q 192 342 192 357 l 192 176 m 192 563 q 192 539 192 547 q 199 531 193 531 q 206 536 204 531 q 207 563 207 542 l 207 740 q 206 765 207 760 q 199 771 204 771 q 192 763 193 771 q 192 740 192 756 l 192 563 z "},"9":{"ha":399,"x_min":28,"x_max":371,"o":"m 200 928 q 326 878 282 928 q 371 749 371 828 l 371 167 q 326 37 371 88 q 200 -14 282 -14 q 74 37 119 -14 q 28 167 28 88 l 28 279 l 192 279 l 192 175 q 193 150 192 156 q 200 144 194 144 q 206 152 206 144 q 207 175 207 160 l 207 296 l 200 296 q 74 347 119 296 q 28 476 28 397 l 28 749 q 74 878 28 828 q 200 928 119 928 m 192 485 q 193 460 192 465 q 200 454 194 454 q 206 462 206 454 q 207 485 207 469 l 207 738 q 206 763 207 754 q 200 772 206 772 q 193 766 194 772 q 192 738 192 760 l 192 485 z "}," ":{"ha":208,"x_min":0,"x_max":0,"o":""}," ":{"ha":208,"x_min":0,"x_max":0,"o":""},"A":{"ha":476,"x_min":28,"x_max":449,"o":"m 164 917 l 314 917 l 449 0 l 288 0 l 274 94 l 203 94 l 189 0 l 28 0 l 164 917 m 251 247 l 239 335 l 225 247 l 251 247 z "},"B":{"ha":396,"x_min":28,"x_max":368,"o":"m 28 917 l 172 917 q 262 896 219 917 q 331 839 304 875 q 357 758 357 803 l 357 554 q 336 489 357 511 q 368 399 368 454 l 368 168 q 322 42 368 83 q 172 0 276 0 l 28 0 l 28 917 m 192 156 q 203 158 201 156 q 206 171 206 161 l 206 381 q 203 394 206 392 q 192 397 201 397 l 192 156 m 192 544 q 203 547 201 544 q 206 557 206 549 l 206 778 q 203 785 206 783 q 192 786 201 786 l 192 544 z "},"C":{"ha":399,"x_min":28,"x_max":371,"o":"m 199 -12 q 72 38 117 -12 q 28 167 28 88 l 28 749 q 72 878 28 828 q 199 929 117 929 q 325 878 279 929 q 371 749 371 828 l 371 576 l 207 576 l 207 747 q 199 771 207 771 q 192 747 192 771 l 192 172 q 193 151 192 160 q 199 143 194 143 q 206 151 204 143 q 207 172 207 160 l 207 335 l 371 335 l 371 167 q 325 38 371 88 q 199 -12 279 -12 z "},"D":{"ha":396,"x_min":28,"x_max":368,"o":"m 28 917 l 172 917 q 322 872 275 917 q 368 742 368 826 l 368 174 q 322 44 368 89 q 172 0 276 0 l 28 0 l 28 917 m 192 156 q 203 160 201 157 q 206 174 206 164 l 206 742 q 203 756 206 753 q 192 761 201 760 l 192 156 z "},"E":{"ha":356,"x_min":28,"x_max":328,"o":"m 28 917 l 328 917 l 328 761 l 192 761 l 192 551 l 306 551 l 306 397 l 192 397 l 192 154 l 328 154 l 328 0 l 28 0 l 28 917 z "},"F":{"ha":356,"x_min":28,"x_max":328,"o":"m 28 917 l 328 917 l 328 761 l 192 761 l 192 551 l 306 551 l 306 397 l 192 397 l 192 0 l 28 0 l 28 917 z "},"G":{"ha":399,"x_min":28,"x_max":371,"o":"m 199 -12 q 72 38 117 -12 q 28 167 28 88 l 28 749 q 72 878 28 828 q 199 929 117 929 q 326 878 281 929 q 371 747 371 828 l 371 576 l 207 576 l 207 739 q 206 763 207 754 q 199 771 204 771 q 193 763 194 771 q 192 739 192 754 l 192 175 q 193 152 192 161 q 199 143 194 143 q 206 152 204 143 q 207 175 207 161 l 207 397 l 199 397 l 199 551 l 371 551 l 371 165 q 325 37 371 86 q 199 -12 279 -12 z "},"H":{"ha":431,"x_min":28,"x_max":403,"o":"m 28 917 l 192 917 l 192 551 l 238 551 l 238 917 l 403 917 l 403 0 l 238 0 l 238 397 l 192 397 l 192 0 l 28 0 l 28 917 z "},"I":{"ha":219,"x_min":28,"x_max":192,"o":"m 28 917 l 192 917 l 192 0 l 28 0 l 28 917 z "},"J":{"ha":401,"x_min":28,"x_max":374,"o":"m 201 -12 q 74 39 119 -12 q 28 169 28 90 l 28 335 l 192 335 l 192 181 q 193 151 192 158 q 201 144 194 144 q 208 154 207 144 q 210 181 210 164 l 210 761 l 131 761 l 131 917 l 374 917 l 374 171 q 328 40 374 92 q 201 -12 283 -12 z "},"K":{"ha":474,"x_min":28,"x_max":446,"o":"m 28 917 l 193 917 l 189 619 l 257 917 l 424 917 l 243 346 l 446 0 l 272 0 l 192 167 l 192 0 l 28 0 l 28 917 z "},"L":{"ha":356,"x_min":28,"x_max":328,"o":"m 28 917 l 192 917 l 192 154 l 328 154 l 328 0 l 28 0 l 28 917 z "},"M":{"ha":575,"x_min":28,"x_max":547,"o":"m 28 917 l 171 917 l 288 789 l 404 917 l 547 917 l 547 0 l 385 0 l 385 658 l 335 601 l 243 601 l 192 658 l 192 0 l 28 0 l 28 917 z "},"N":{"ha":435,"x_min":28,"x_max":407,"o":"m 28 917 l 192 917 l 192 731 l 244 606 l 244 917 l 407 917 l 407 0 l 244 0 l 244 282 l 192 403 l 192 0 l 28 0 l 28 917 z "},"O":{"ha":399,"x_min":28,"x_max":371,"o":"m 199 -4 q 72 47 117 -4 q 28 175 28 97 l 28 736 q 72 866 28 815 q 199 917 117 917 q 325 866 279 917 q 371 736 371 815 l 371 175 q 325 47 371 97 q 199 -4 279 -4 m 192 186 q 193 162 192 171 q 199 153 194 153 q 206 162 204 153 q 207 186 207 171 l 207 728 q 206 751 207 746 q 199 757 204 757 q 192 749 193 757 q 192 728 192 742 l 192 186 z "},"P":{"ha":385,"x_min":28,"x_max":357,"o":"m 28 917 l 174 917 q 357 750 357 917 l 357 553 q 335 478 357 514 q 272 419 314 442 q 174 397 231 397 l 192 397 l 192 0 l 28 0 l 28 917 m 192 544 q 203 547 201 544 q 206 557 206 549 l 206 778 q 203 785 206 783 q 192 786 201 786 l 192 544 z "},"Q":{"ha":404,"x_min":28,"x_max":376,"o":"m 211 -28 q 210 -9 211 -14 q 204 -4 210 -4 q 74 46 119 -4 q 28 175 28 96 l 28 736 q 72 866 28 815 q 199 917 117 917 q 325 866 279 917 q 371 736 371 815 l 371 175 q 349 78 371 121 q 376 -26 376 33 l 376 -110 l 211 -110 l 211 -28 m 192 178 q 192 158 192 164 q 199 153 193 153 q 206 156 206 153 q 207 178 207 160 l 207 735 q 206 754 207 751 q 199 757 206 757 q 192 752 193 757 q 192 735 192 747 l 192 178 z "},"R":{"ha":385,"x_min":28,"x_max":357,"o":"m 28 917 l 174 917 q 308 872 258 917 q 357 758 357 828 l 357 557 q 336 474 357 507 q 357 376 357 439 l 357 0 l 206 0 l 206 376 q 204 392 206 386 q 199 397 203 397 l 192 397 l 192 0 l 28 0 l 28 917 m 192 544 q 203 547 201 544 q 206 557 206 549 l 206 778 q 203 785 206 783 q 192 786 201 786 l 192 544 z "},"S":{"ha":400,"x_min":28,"x_max":372,"o":"m 200 -12 q 74 38 119 -12 q 28 167 28 88 l 28 335 l 192 335 l 192 169 q 193 147 192 150 q 200 143 194 143 q 206 149 206 143 q 207 169 207 154 l 207 357 q 203 382 207 375 q 183 394 200 389 q 69 469 108 426 q 29 586 29 513 l 29 747 q 74 878 29 826 q 200 929 118 929 q 326 878 281 929 q 372 747 372 826 l 372 576 l 207 576 l 207 747 q 206 766 207 761 q 200 771 206 771 q 193 768 194 771 q 192 747 192 765 l 192 586 q 195 565 192 571 q 213 556 199 560 q 327 480 283 529 q 371 357 371 431 l 371 167 q 326 38 371 88 q 200 -12 282 -12 z "},"T":{"ha":381,"x_min":28,"x_max":353,"o":"m 110 764 l 28 764 l 28 917 l 353 917 l 353 764 l 272 764 l 272 0 l 110 0 l 110 764 z "},"U":{"ha":401,"x_min":28,"x_max":374,"o":"m 200 -12 q 74 43 119 -12 q 28 179 28 99 l 28 917 l 192 917 l 192 179 q 193 151 192 157 q 200 144 194 144 q 207 150 206 144 q 208 179 208 156 l 208 917 l 374 917 l 374 179 q 327 44 374 100 q 200 -12 281 -12 z "},"V":{"ha":451,"x_min":28,"x_max":424,"o":"m 28 917 l 193 917 l 224 447 l 258 917 l 424 917 l 301 0 l 150 0 l 28 917 z "},"W":{"ha":617,"x_min":28,"x_max":589,"o":"m 28 917 l 189 917 l 233 581 l 250 653 l 367 653 l 385 579 l 428 917 l 589 917 l 472 0 l 322 0 l 308 301 l 293 0 l 142 0 l 28 917 z "},"X":{"ha":474,"x_min":28,"x_max":446,"o":"m 151 451 l 28 917 l 194 917 l 236 751 l 278 917 l 446 917 l 322 451 l 436 0 l 268 0 l 236 139 l 204 0 l 38 0 l 151 451 z "},"Y":{"ha":444,"x_min":28,"x_max":417,"o":"m 140 431 l 28 917 l 194 917 l 222 786 l 250 917 l 417 917 l 304 431 l 304 0 l 140 0 l 140 431 z "},"Z":{"ha":369,"x_min":28,"x_max":342,"o":"m 28 121 l 172 761 l 28 761 l 28 917 l 342 917 l 342 796 l 199 156 l 342 156 l 342 0 l 28 0 l 28 121 z "},"a":{"ha":399,"x_min":28,"x_max":371,"o":"m 199 -14 q 72 36 117 -14 q 28 165 28 86 l 28 321 q 72 451 28 400 q 199 501 117 501 l 207 501 l 207 532 q 206 554 207 550 q 199 558 204 558 q 192 552 193 558 q 192 532 192 546 l 192 511 l 28 511 l 28 538 q 72 667 28 617 q 199 718 117 718 q 325 667 279 718 q 371 538 371 617 l 371 165 q 325 36 371 86 q 199 -14 279 -14 m 192 168 q 192 149 192 156 q 199 142 193 142 q 206 147 204 142 q 207 168 207 151 l 207 342 l 199 342 q 192 337 193 342 q 192 319 192 332 l 192 168 z "},"b":{"ha":399,"x_min":28,"x_max":371,"o":"m 199 -14 q 72 36 117 -14 q 28 165 28 86 l 28 917 l 192 917 l 192 718 l 199 718 q 325 667 279 718 q 371 538 371 617 l 371 165 q 325 36 371 86 q 199 -14 279 -14 m 192 168 q 193 149 192 157 q 199 142 194 142 q 206 149 204 142 q 207 168 207 157 l 207 536 q 199 558 207 558 q 192 536 192 558 l 192 168 z "},"c":{"ha":399,"x_min":28,"x_max":371,"o":"m 199 -12 q 72 38 117 -12 q 28 167 28 88 l 28 538 q 72 667 28 617 q 199 718 117 718 q 325 667 279 718 q 371 538 371 617 l 371 413 l 207 413 l 207 529 q 206 553 207 547 q 199 558 204 558 q 192 551 193 558 q 192 529 192 543 l 192 176 q 192 151 192 160 q 199 143 193 143 q 206 149 204 143 q 207 176 207 156 l 207 294 l 371 294 l 371 167 q 325 38 371 88 q 199 -12 279 -12 z "},"d":{"ha":399,"x_min":28,"x_max":371,"o":"m 200 -14 q 74 36 119 -14 q 28 165 28 86 l 28 538 q 74 667 28 617 q 200 718 119 718 l 207 718 l 207 917 l 371 917 l 371 165 q 326 36 371 86 q 200 -14 282 -14 m 192 168 q 193 149 192 157 q 200 142 194 142 q 206 149 204 142 q 207 168 207 157 l 207 536 q 200 558 207 558 q 192 536 192 558 l 192 168 z "},"e":{"ha":399,"x_min":28,"x_max":371,"o":"m 199 -12 q 72 38 117 -12 q 28 167 28 88 l 28 538 q 72 667 28 617 q 199 718 117 718 q 325 667 279 718 q 371 538 371 617 l 371 450 q 325 324 371 372 q 199 275 279 275 l 192 275 l 192 169 q 192 149 192 154 q 199 143 193 143 q 206 147 206 143 q 207 169 207 150 l 207 239 l 371 239 l 371 167 q 325 38 371 88 q 199 -12 279 -12 m 199 433 q 206 436 206 433 q 207 457 207 439 l 207 536 q 206 552 207 546 q 199 558 204 558 q 193 552 194 558 q 192 536 192 546 l 192 433 l 199 433 z "},"f":{"ha":299,"x_min":28,"x_max":271,"o":"m 28 736 q 71 865 28 814 q 192 917 114 917 l 271 917 l 271 751 l 207 751 q 195 748 199 751 q 192 732 192 744 l 192 710 l 246 710 l 246 557 l 192 557 l 190 0 l 28 0 l 28 736 z "},"g":{"ha":431,"x_min":28,"x_max":400,"o":"m 129 -150 l 185 -150 q 200 -144 193 -150 q 207 -126 207 -137 l 207 -12 l 199 -12 q 72 38 117 -12 q 28 167 28 88 l 28 539 q 72 669 28 618 q 199 719 117 719 q 292 696 251 719 q 364 707 328 707 q 400 704 375 707 l 400 558 l 371 558 l 371 539 l 369 -135 q 328 -269 369 -222 q 207 -317 286 -317 l 129 -317 l 129 -150 m 192 169 q 193 150 192 157 q 199 143 194 143 q 206 150 204 143 q 207 169 207 157 l 207 536 q 206 556 207 551 q 199 560 204 560 q 192 553 193 560 q 192 536 192 547 l 192 169 z "},"h":{"ha":399,"x_min":28,"x_max":371,"o":"m 28 0 l 28 917 l 192 917 l 192 718 l 199 718 q 325 667 279 718 q 371 538 371 617 l 371 0 l 207 0 l 207 529 q 206 553 207 547 q 199 558 204 558 q 192 551 193 558 q 192 529 192 543 l 192 0 l 28 0 z "},"i":{"ha":235,"x_min":28,"x_max":207,"o":"m 38 704 l 200 704 l 200 0 l 38 0 l 38 704 m 28 828 q 54 890 28 864 q 118 917 81 917 q 181 890 154 917 q 207 828 207 864 q 181 764 207 790 q 118 738 154 738 q 54 764 81 738 q 28 828 28 790 z "},"j":{"ha":406,"x_min":28,"x_max":378,"o":"m 199 -317 q 72 -266 117 -317 q 28 -136 28 -215 l 28 -35 l 192 -33 l 192 -129 q 193 -151 192 -143 q 199 -160 194 -160 q 206 -151 204 -160 q 207 -129 207 -143 l 207 704 l 371 704 l 371 -136 q 325 -266 371 -215 q 199 -317 279 -317 m 199 828 q 225 890 199 864 q 289 917 251 917 q 351 890 325 917 q 378 828 378 864 q 351 764 378 790 q 289 738 325 738 q 225 764 251 738 q 199 828 199 790 z "},"k":{"ha":506,"x_min":28,"x_max":478,"o":"m 28 917 l 192 917 l 192 599 l 256 704 l 431 704 l 233 347 l 478 0 l 297 0 l 192 140 l 192 0 l 28 0 l 28 917 z "},"l":{"ha":219,"x_min":28,"x_max":192,"o":"m 28 917 l 192 917 l 192 0 l 28 0 l 28 917 z "},"m":{"ha":576,"x_min":28,"x_max":549,"o":"m 28 538 q 72 667 28 617 q 199 718 117 718 q 288 697 250 718 q 376 718 325 718 q 503 667 458 718 q 549 538 549 617 l 549 0 l 385 0 l 385 532 q 383 552 385 546 q 378 558 382 558 q 372 551 374 558 q 371 532 371 544 l 371 0 l 207 0 l 207 532 q 206 552 207 546 q 200 558 206 558 q 194 552 194 558 q 193 532 193 546 l 192 0 l 28 0 l 28 538 z "},"n":{"ha":399,"x_min":28,"x_max":371,"o":"m 28 538 q 72 667 28 617 q 199 718 117 718 q 325 667 279 718 q 371 538 371 617 l 371 0 l 207 0 l 207 528 q 206 550 207 542 q 199 558 204 558 q 193 550 194 558 q 192 528 192 542 l 192 0 l 28 0 l 28 538 z "},"o":{"ha":399,"x_min":28,"x_max":371,"o":"m 199 -14 q 72 36 117 -14 q 28 165 28 86 l 28 538 q 72 667 28 617 q 199 718 117 718 q 325 667 279 718 q 371 538 371 617 l 371 165 q 325 36 371 86 q 199 -14 279 -14 m 192 174 q 192 149 192 157 q 199 142 193 142 q 206 147 204 142 q 207 174 207 153 l 207 529 q 206 553 207 547 q 199 558 204 558 q 192 551 193 558 q 192 529 192 543 l 192 174 z "},"p":{"ha":399,"x_min":28,"x_max":371,"o":"m 28 539 q 72 667 28 617 q 199 718 117 718 q 325 667 279 718 q 371 539 371 617 l 371 168 q 325 38 371 89 q 199 -12 279 -12 l 192 -12 l 192 -196 l 28 -196 l 28 539 m 192 169 q 193 152 192 158 q 199 146 194 146 q 206 151 204 146 q 207 169 207 156 l 207 529 q 206 556 207 550 q 199 561 204 561 q 192 553 193 561 q 192 529 192 544 l 192 169 z "},"q":{"ha":399,"x_min":28,"x_max":371,"o":"m 200 -12 q 74 38 119 -12 q 28 168 28 89 l 28 539 q 74 667 28 617 q 200 718 119 718 q 326 667 282 718 q 371 539 371 617 l 371 -196 l 207 -196 l 207 -12 l 200 -12 m 192 169 q 193 151 192 156 q 200 146 194 146 q 206 152 204 146 q 207 169 207 158 l 207 529 q 206 553 207 544 q 200 561 206 561 q 193 556 194 561 q 192 529 192 550 l 192 169 z "},"r":{"ha":399,"x_min":28,"x_max":371,"o":"m 28 538 q 74 667 28 617 q 200 718 119 718 q 326 667 282 718 q 371 538 371 617 l 371 413 l 207 413 l 207 526 q 206 549 207 540 q 200 558 204 558 q 193 549 194 558 q 192 526 192 540 l 190 0 l 28 0 l 28 538 z "},"s":{"ha":400,"x_min":28,"x_max":372,"o":"m 199 -14 q 72 36 117 -14 q 28 167 28 86 l 28 263 l 192 263 l 192 176 q 193 153 192 161 q 199 144 194 144 q 206 153 204 144 q 207 176 207 161 l 207 264 q 205 283 207 279 q 189 289 203 286 q 70 356 111 308 q 29 481 29 404 l 29 538 q 74 667 29 617 q 200 718 118 718 q 326 667 281 718 q 372 538 372 617 l 372 482 l 207 482 l 207 529 q 206 551 207 543 q 200 558 206 558 q 193 553 194 558 q 192 529 192 547 l 192 479 q 197 457 192 463 q 221 444 201 451 q 334 379 297 415 q 371 271 371 343 l 371 167 q 325 37 371 88 q 199 -14 279 -14 z "},"t":{"ha":311,"x_min":28,"x_max":283,"o":"m 28 917 l 190 917 l 192 704 l 283 704 l 283 551 l 192 551 l 192 0 l 28 0 l 28 917 z "},"u":{"ha":399,"x_min":28,"x_max":371,"o":"m 199 -14 q 72 36 117 -14 q 28 167 28 86 l 28 704 l 192 704 l 192 178 q 193 153 192 163 q 199 144 194 144 q 206 153 204 144 q 207 178 207 163 l 207 704 l 371 704 l 371 167 q 325 37 371 88 q 199 -14 279 -14 z "},"v":{"ha":410,"x_min":28,"x_max":382,"o":"m 28 704 l 193 704 l 207 301 l 217 704 l 382 704 l 289 0 l 126 0 l 28 704 z "},"w":{"ha":589,"x_min":28,"x_max":561,"o":"m 28 704 l 193 704 l 201 314 l 214 704 l 379 704 l 392 314 l 396 704 l 561 704 l 468 0 l 306 0 l 299 300 l 289 0 l 126 0 l 28 704 z "},"x":{"ha":415,"x_min":28,"x_max":388,"o":"m 104 343 l 28 704 l 193 704 l 211 547 l 222 704 l 388 704 l 317 343 l 388 0 l 222 0 l 208 182 l 193 0 l 28 0 l 104 343 z "},"y":{"ha":410,"x_min":28,"x_max":382,"o":"m 128 38 l 28 704 l 193 704 l 207 286 l 217 704 l 382 704 l 292 33 l 250 -317 l 85 -317 l 128 38 z "},"z":{"ha":369,"x_min":28,"x_max":342,"o":"m 28 122 l 168 549 l 28 549 l 28 704 l 342 704 l 342 581 l 203 156 l 342 156 l 342 0 l 28 0 l 28 122 z "},".":{"ha":253,"x_min":28,"x_max":225,"o":"m 126 0 q 56 28 85 0 q 28 97 28 57 q 57 172 28 142 q 126 203 86 203 q 197 174 169 203 q 225 97 225 146 q 196 29 225 58 q 126 0 167 0 z "},",":{"ha":314,"x_min":28,"x_max":286,"o":"m 117 233 l 286 233 l 197 0 l 28 0 l 117 233 z "},"'":{"ha":328,"x_min":28,"x_max":300,"o":"m 28 917 l 197 917 l 300 646 l 131 646 l 28 917 z "},"\"":{"ha":525,"x_min":28,"x_max":497,"o":"m 28 917 l 197 917 l 300 646 l 131 646 l 28 917 m 225 917 l 394 917 l 497 646 l 328 646 l 225 917 z "},"‘":{"ha":328,"x_min":28,"x_max":300,"o":"m 28 917 l 197 917 l 300 646 l 131 646 l 28 917 z "},"’":{"ha":328,"x_min":28,"x_max":300,"o":"m 28 646 l 131 917 l 300 917 l 197 646 l 28 646 z "},"“":{"ha":625,"x_min":28,"x_max":497,"o":"m 28 917 l 197 917 l 300 646 l 131 646 l 28 917 m 225 917 l 394 917 l 497 646 l 328 646 l 225 917 z "},"”":{"ha":442,"x_min":-56,"x_max":414,"o":"m 142 646 l 244 917 l 414 917 l 311 646 l 142 646 m 47 917 l 217 917 l 114 646 l -56 646 l 47 917 z "},"-":{"ha":474,"x_min":28,"x_max":446,"o":"m 28 510 l 446 510 l 446 344 l 28 344 l 28 510 z "},"+":{"ha":474,"x_min":28,"x_max":446,"o":"m 156 344 l 28 344 l 28 510 l 156 510 l 156 636 l 319 636 l 319 510 l 446 510 l 446 344 l 319 344 l 319 218 l 156 218 l 156 344 z "},"*":{"ha":474,"x_min":28,"x_max":446,"o":"m 169 549 l 126 513 l 42 624 l 79 653 l 28 653 l 28 790 l 68 790 l 50 807 l 143 908 l 169 885 l 169 917 l 306 917 l 306 879 l 332 908 l 433 817 l 410 790 l 446 790 l 446 653 l 407 653 l 443 610 l 342 517 l 306 561 l 306 499 l 169 499 l 169 549 z "},"^":{"ha":557,"x_min":56,"x_max":501,"o":"m 285 917 l 501 635 l 315 635 l 282 704 l 246 635 l 56 632 l 285 917 z "},"/":{"ha":613,"x_min":28,"x_max":585,"o":"m 414 917 l 585 917 l 199 0 l 28 0 l 414 917 z "},"\\":{"ha":613,"x_min":28,"x_max":585,"o":"m 28 917 l 199 917 l 585 0 l 414 0 l 28 917 z "},":":{"ha":254,"x_min":28,"x_max":226,"o":"m 128 0 q 58 28 86 0 q 29 97 29 57 q 58 172 29 142 q 128 203 88 203 q 199 174 171 203 q 226 97 226 146 q 197 29 226 58 q 128 0 168 0 m 126 488 q 56 516 85 488 q 28 585 28 544 q 57 660 28 629 q 126 690 86 690 q 197 662 169 690 q 225 585 225 633 q 196 517 225 546 q 126 488 167 488 z "},";":{"ha":314,"x_min":28,"x_max":286,"o":"m 168 588 q 98 616 126 588 q 69 685 69 644 q 99 760 69 729 q 168 790 128 790 q 239 762 211 790 q 267 685 267 733 q 238 617 267 646 q 168 588 208 588 m 117 279 l 286 279 l 197 46 l 28 46 l 117 279 z "},"<":{"ha":574,"x_min":28,"x_max":546,"o":"m 28 440 l 340 710 l 546 710 l 233 440 l 524 169 l 324 169 l 28 440 z "},"=":{"ha":472,"x_min":28,"x_max":444,"o":"m 28 639 l 444 639 l 444 475 l 28 475 l 28 639 m 28 442 l 444 442 l 444 278 l 28 278 l 28 442 z "},">":{"ha":572,"x_min":28,"x_max":544,"o":"m 339 440 l 28 710 l 232 710 l 544 440 l 249 169 l 49 169 l 339 440 z "},"!":{"ha":231,"x_min":28,"x_max":203,"o":"m 60 917 l 179 917 l 164 201 l 65 201 l 60 917 m 28 86 q 53 147 28 121 q 115 174 79 174 q 178 147 153 174 q 203 86 203 121 q 176 26 203 53 q 115 0 150 0 q 53 26 79 0 q 28 86 28 51 z "},"?":{"ha":404,"x_min":28,"x_max":376,"o":"m 35 357 q 78 480 35 431 q 193 556 122 529 q 210 565 207 560 q 213 586 213 569 l 213 736 q 211 761 213 751 q 206 771 210 771 q 199 761 200 771 q 197 736 197 751 l 197 576 l 33 576 l 33 747 q 78 878 33 828 q 206 929 124 929 q 331 878 286 929 q 376 747 376 826 l 376 586 q 336 469 376 513 q 221 394 296 426 q 201 382 206 389 q 197 357 197 375 l 197 211 l 35 211 l 35 357 m 28 88 q 53 149 28 122 q 115 175 79 175 q 179 149 154 175 q 204 88 204 124 q 177 26 204 53 q 115 0 150 0 q 53 26 79 0 q 28 88 28 53 z "},"#":{"ha":1017,"x_min":28,"x_max":989,"o":"m 206 288 l 28 288 l 94 451 l 274 451 l 296 504 l 92 504 l 158 668 l 365 668 l 471 917 l 642 917 l 536 668 l 621 668 l 725 917 l 896 917 l 792 668 l 989 668 l 922 504 l 722 504 l 700 451 l 925 451 l 858 288 l 631 288 l 510 0 l 339 0 l 460 288 l 376 288 l 254 0 l 85 0 l 206 288 m 529 451 l 551 504 l 468 504 l 446 451 l 529 451 z "},"@":{"ha":589,"x_min":28,"x_max":561,"o":"m 329 -51 q 272 -54 293 -54 q 97 -1 167 -54 q 28 175 28 51 l 28 510 q 63 655 28 589 q 157 759 97 721 q 288 797 217 797 q 422 759 358 797 q 523 655 485 721 q 561 510 561 589 l 561 211 q 522 131 561 160 q 429 103 483 103 q 335 132 372 103 q 290 124 317 124 q 213 154 240 124 q 186 233 186 185 l 186 328 q 213 408 186 376 q 290 439 240 439 l 296 439 l 296 457 q 295 469 296 465 q 290 472 294 472 q 287 469 288 472 q 286 457 286 465 l 286 443 l 186 443 l 186 460 q 213 539 186 508 q 290 569 240 569 q 368 539 340 569 q 396 460 396 508 l 396 244 q 403 218 396 228 q 422 208 411 208 q 444 219 435 208 q 453 244 453 229 l 453 506 q 437 583 453 543 q 384 651 421 624 q 288 679 347 679 q 174 626 206 679 q 143 506 143 574 l 143 174 q 192 85 143 108 q 329 67 242 63 l 329 -51 m 286 238 q 287 224 286 229 q 290 219 288 219 q 295 224 294 219 q 296 238 296 229 l 296 340 l 290 340 q 287 338 288 340 q 286 328 286 335 l 286 238 z "},"$":{"ha":400,"x_min":28,"x_max":372,"o":"m 125 1 q 53 65 78 21 q 28 167 28 110 l 28 335 l 192 335 l 192 176 q 193 149 192 156 q 200 143 194 143 q 206 151 206 143 q 207 176 207 160 l 207 357 q 203 382 207 375 q 183 394 200 389 q 69 469 108 426 q 29 586 29 513 l 29 747 q 53 850 29 806 q 125 915 78 894 l 125 1011 l 276 1011 l 276 914 q 347 849 322 893 q 372 747 372 804 l 372 576 l 207 576 l 207 743 q 206 764 207 757 q 200 771 206 771 q 193 767 194 771 q 192 743 192 763 l 192 586 q 195 565 192 571 q 213 556 199 560 q 327 480 283 529 q 371 357 371 431 l 371 167 q 347 66 371 110 q 276 1 322 22 l 276 -78 l 125 -78 l 125 1 z "},"€":{"ha":444,"x_min":28,"x_max":417,"o":"m 244 -12 q 118 38 163 -12 q 74 167 74 88 l 74 310 l 28 310 l 28 474 l 74 474 l 74 507 l 28 507 l 28 671 l 74 671 l 74 749 q 118 878 74 828 q 244 929 163 929 q 371 878 325 929 q 417 749 417 828 l 417 576 l 253 576 l 253 747 q 244 771 253 771 q 238 747 238 771 l 238 671 l 249 671 l 249 507 l 238 507 l 238 474 l 249 474 l 249 310 l 238 310 l 238 172 q 239 151 238 160 q 244 143 240 143 q 251 151 250 143 q 253 172 253 160 l 253 335 l 417 335 l 417 167 q 371 38 417 88 q 244 -12 325 -12 z "},"%":{"ha":993,"x_min":28,"x_max":965,"o":"m 164 172 q 63 213 99 172 q 28 315 28 253 l 28 772 q 63 876 28 836 q 164 917 99 917 q 265 876 229 917 q 301 772 301 836 l 301 315 q 265 213 301 253 q 164 172 229 172 m 158 325 q 159 305 158 313 q 164 297 160 297 q 170 305 169 297 q 171 325 171 313 l 171 389 l 158 389 l 158 325 m 171 536 l 171 764 q 169 783 171 775 q 164 790 168 790 q 159 783 160 790 q 158 764 158 775 l 158 536 l 171 536 m 589 915 l 760 915 l 374 -1 l 203 -1 l 589 915 m 682 622 q 718 731 682 689 q 822 772 754 772 q 927 731 889 772 q 965 622 965 689 l 965 149 q 927 43 965 85 q 822 1 889 1 q 719 43 756 1 q 682 149 682 85 l 682 622 m 817 160 q 817 138 817 146 q 822 131 818 131 q 828 138 826 131 q 829 160 829 146 l 829 226 l 817 226 l 817 160 m 829 378 l 829 614 q 828 634 829 626 q 822 642 826 642 q 817 634 818 642 q 817 614 817 626 l 817 378 l 829 378 z "},"&":{"ha":947,"x_min":28,"x_max":919,"o":"m 336 0 q 183 31 254 0 q 70 123 113 61 q 28 271 28 185 q 59 399 28 336 q 152 503 90 461 q 300 550 214 544 q 253 700 253 629 q 290 825 253 776 q 379 895 326 874 q 481 917 432 917 q 590 890 535 917 q 681 810 644 864 q 718 676 718 756 l 718 564 l 554 564 l 554 676 q 535 741 554 728 q 476 754 515 754 q 426 744 443 754 q 410 704 410 733 q 424 639 410 665 q 475 565 438 613 l 919 0 l 735 0 l 596 168 q 498 42 569 85 q 336 0 426 0 m 192 271 q 321 150 192 150 q 413 181 379 150 q 446 274 446 211 q 410 361 446 328 q 317 394 374 394 q 226 364 260 394 q 192 271 192 333 z "},"(":{"ha":425,"x_min":28,"x_max":397,"o":"m 347 -18 q 194 49 268 -22 q 74 239 121 121 q 28 483 28 357 q 111 823 28 694 q 318 997 194 951 l 394 853 q 247 706 294 793 q 200 486 200 619 q 251 241 200 335 q 397 139 303 147 l 347 -18 z "},")":{"ha":417,"x_min":19,"x_max":389,"o":"m 19 139 q 165 241 114 147 q 217 486 217 335 q 169 706 217 619 q 22 853 122 793 l 99 997 q 306 823 222 951 q 389 483 389 694 q 342 239 389 357 q 222 49 296 121 q 69 -18 149 -22 l 19 139 z "},"{":{"ha":382,"x_min":28,"x_max":354,"o":"m 354 -50 q 315 -53 326 -53 q 199 -22 247 -53 q 125 59 150 8 q 100 169 100 110 q 111 246 100 193 q 122 336 122 301 q 109 380 122 365 q 71 408 96 394 q 39 432 50 421 q 28 464 28 443 q 39 497 28 486 q 71 519 50 508 q 109 549 96 533 q 122 594 122 564 q 111 697 122 633 q 101 757 103 736 q 100 792 100 769 q 151 950 100 897 q 276 1003 203 1003 q 313 999 294 1003 l 313 838 q 289 843 296 843 q 263 800 263 843 q 265 768 263 793 l 275 701 q 286 596 286 626 q 232 464 286 510 q 286 335 286 415 q 276 256 286 304 q 265 165 265 200 q 322 111 265 111 q 354 115 338 111 l 354 -50 z "},"|":{"ha":219,"x_min":28,"x_max":192,"o":"m 28 946 l 192 946 l 192 -33 l 28 -33 l 28 946 z "},"}":{"ha":382,"x_min":28,"x_max":354,"o":"m 28 115 q 60 111 44 111 q 117 165 117 111 q 106 256 117 200 q 96 335 96 304 q 150 464 96 415 q 96 596 96 510 q 107 701 96 626 l 117 768 q 119 799 119 793 q 93 842 119 842 q 69 838 81 842 l 69 999 q 107 1003 89 1003 q 231 950 179 1003 q 282 793 282 897 q 281 757 282 769 q 271 697 279 736 q 260 594 260 633 q 273 549 260 564 q 311 519 286 533 q 343 497 332 508 q 354 464 354 486 q 343 432 354 443 q 311 408 332 421 q 273 380 286 394 q 260 336 260 365 q 271 246 260 301 q 282 169 282 193 q 257 59 282 110 q 183 -22 232 8 q 67 -53 135 -53 q 28 -50 56 -53 l 28 115 z "},"[":{"ha":311,"x_min":28,"x_max":283,"o":"m 28 964 l 283 964 l 283 800 l 197 800 l 197 -25 l 283 -25 l 283 -189 l 28 -189 l 28 964 z "},"]":{"ha":311,"x_min":28,"x_max":283,"o":"m 28 -189 l 28 -25 l 114 -25 l 114 800 l 28 800 l 28 964 l 283 964 l 283 -189 l 28 -189 z "},"‚":{"ha":314,"x_min":28,"x_max":286,"o":"m 117 233 l 286 233 l 197 0 l 28 0 l 117 233 z "},"„":{"ha":497,"x_min":28,"x_max":469,"o":"m 117 233 l 286 233 l 197 0 l 28 0 l 117 233 m 300 233 l 469 233 l 381 0 l 211 0 l 300 233 z "},"•":{"ha":311,"x_min":28,"x_max":283,"o":"m 156 292 q 65 328 101 292 q 28 418 28 365 q 66 515 28 475 q 156 554 104 554 q 247 517 210 554 q 283 418 283 479 q 245 329 283 367 q 156 292 207 292 z "},"_":{"ha":603,"x_min":28,"x_max":575,"o":"m 28 228 l 575 228 l 575 64 l 28 64 l 28 228 z "},"–":{"ha":597,"x_min":28,"x_max":569,"o":"m 28 469 l 569 469 l 569 306 l 28 306 l 28 469 z "},"—":{"ha":700,"x_min":28,"x_max":672,"o":"m 28 468 l 672 468 l 672 304 l 28 304 l 28 468 z "},"¯":{"ha":494,"x_min":28,"x_max":467,"o":"m 28 939 l 467 939 l 467 774 l 28 774 l 28 939 z "},"¬":{"ha":699,"x_min":28,"x_max":671,"o":"m 507 304 l 28 304 l 28 468 l 671 468 l 671 165 l 507 165 l 507 304 z "},"™":{"ha":422,"x_min":28,"x_max":394,"o":"m 65 850 l 28 850 l 28 917 l 228 917 l 279 861 l 331 917 l 394 917 l 394 511 l 322 511 l 322 803 l 300 778 l 260 778 l 236 803 l 236 511 l 164 511 l 164 850 l 136 850 l 136 511 l 65 511 l 65 850 z "},"®":{"ha":450,"x_min":28,"x_max":422,"o":"m 222 224 q 85 272 142 225 q 28 418 28 319 l 28 740 q 58 838 28 797 q 133 897 88 878 q 225 917 178 917 q 317 897 272 917 q 392 838 363 878 q 422 740 422 797 l 422 418 q 365 272 422 319 q 222 224 307 225 m 96 450 q 222 294 96 297 q 321 332 288 296 q 354 450 354 368 l 354 707 q 317 812 354 776 q 225 847 281 847 q 133 812 169 847 q 96 707 96 776 l 96 450 m 147 797 l 219 797 q 285 775 261 797 q 310 718 310 753 l 310 621 q 299 579 310 597 q 310 531 310 561 l 310 347 l 235 347 l 235 531 q 232 542 235 542 l 228 542 l 228 347 l 147 347 l 147 797 m 228 614 q 233 615 232 614 q 235 621 235 617 l 235 729 q 233 731 235 731 q 228 732 232 732 l 228 614 z "},"©":{"ha":450,"x_min":28,"x_max":422,"o":"m 222 224 q 85 272 142 225 q 28 418 28 319 l 28 740 q 58 838 28 797 q 133 897 88 878 q 225 917 178 917 q 317 897 272 917 q 392 838 363 878 q 422 740 422 797 l 422 418 q 365 272 422 319 q 222 224 307 225 m 96 450 q 222 294 96 297 q 321 332 288 296 q 354 450 354 368 l 354 707 q 317 812 354 776 q 225 847 281 847 q 133 812 169 847 q 96 707 96 776 l 96 450 m 143 711 q 164 772 143 749 q 224 796 185 796 q 284 772 263 796 q 306 711 306 749 l 306 631 l 228 631 l 228 711 q 224 722 228 722 q 221 711 221 722 l 221 440 q 224 426 221 426 q 227 430 226 426 q 228 440 228 433 l 228 517 l 306 517 l 306 438 q 284 376 306 400 q 224 353 263 353 q 164 376 185 353 q 143 438 143 400 l 143 711 z "},"¤":{"ha":581,"x_min":28,"x_max":553,"o":"m 133 232 q 117 317 117 269 l 117 597 q 138 692 117 650 l 39 851 l 215 851 l 264 776 q 288 778 271 778 q 326 774 308 778 l 375 851 l 553 851 l 444 679 q 460 597 460 644 l 460 317 q 446 238 460 274 l 551 68 l 374 68 l 328 142 q 288 138 310 138 q 254 140 265 138 l 206 64 l 28 64 l 133 232 m 281 319 q 281 300 281 306 q 288 294 282 294 q 295 298 294 294 q 296 319 296 301 l 296 596 q 295 615 296 613 q 288 618 294 618 q 281 613 282 618 q 281 596 281 608 l 281 319 z "},"¢":{"ha":399,"x_min":28,"x_max":371,"o":"m 113 7 q 49 72 71 29 q 28 167 28 114 l 28 749 q 49 845 28 803 q 113 908 71 888 l 113 1003 l 288 1003 l 288 908 q 349 844 328 886 q 371 749 371 801 l 371 576 l 207 576 l 207 732 q 206 760 207 749 q 199 771 204 771 q 193 760 194 771 q 192 732 192 749 l 192 182 q 193 154 192 165 q 199 143 194 143 q 206 154 204 143 q 207 182 207 165 l 207 335 l 371 335 l 371 167 q 349 72 371 114 q 288 8 328 31 l 288 -93 l 113 -93 l 113 7 z "},"£":{"ha":739,"x_min":28,"x_max":711,"o":"m 82 0 q 167 138 139 69 q 196 296 196 206 q 181 422 196 347 l 28 422 l 28 586 l 128 586 q 111 672 111 632 q 153 805 111 750 q 264 888 196 860 q 406 917 332 917 q 554 876 483 917 q 668 769 625 835 q 711 633 711 703 q 707 594 711 614 l 540 594 q 546 631 546 619 q 508 717 546 682 q 403 753 471 753 q 315 733 350 753 q 281 679 281 714 q 283 658 281 665 q 308 586 292 624 l 508 586 l 508 422 l 358 422 q 372 289 372 353 q 358 164 372 222 l 665 164 l 665 0 l 82 0 z "},"¥":{"ha":472,"x_min":28,"x_max":444,"o":"m 160 51 l 28 51 l 28 215 l 160 215 l 160 249 l 28 249 l 28 413 l 160 413 l 160 431 l 47 917 l 214 917 l 242 786 l 269 917 l 436 917 l 324 431 l 324 413 l 444 413 l 444 249 l 324 249 l 324 215 l 444 215 l 444 51 l 324 51 l 324 0 l 160 0 l 160 51 z "},"ƒ":{"ha":615,"x_min":28,"x_max":588,"o":"m 43 53 q 124 350 90 215 l 69 350 l 69 513 l 153 514 l 163 565 q 192 724 179 672 q 236 819 204 775 q 316 892 268 867 q 443 917 364 917 l 588 917 l 588 753 l 483 753 q 411 748 431 753 q 376 724 392 743 q 342 656 353 697 q 321 542 332 615 l 315 513 l 433 513 l 433 349 l 288 349 l 264 253 q 194 0 232 122 l 28 0 l 43 53 z "},"−":{"ha":474,"x_min":28,"x_max":446,"o":"m 28 510 l 446 510 l 446 344 l 28 344 l 28 510 z "},"±":{"ha":479,"x_min":28,"x_max":451,"o":"m 161 532 l 33 532 l 33 697 l 161 697 l 161 824 l 325 824 l 325 697 l 451 697 l 451 532 l 325 532 l 325 406 l 161 406 l 161 532 m 28 347 l 446 347 l 446 182 l 28 182 l 28 347 z "},"×":{"ha":467,"x_min":28,"x_max":439,"o":"m 118 471 l 28 561 l 144 678 l 235 588 l 324 678 l 439 561 l 350 472 l 439 383 l 322 265 l 233 356 l 144 265 l 28 382 l 118 471 z "},"÷":{"ha":474,"x_min":28,"x_max":446,"o":"m 28 510 l 446 510 l 446 344 l 28 344 l 28 510 m 233 122 q 163 151 192 122 q 135 219 135 179 q 164 294 135 264 q 233 325 193 325 q 304 297 276 325 q 332 219 332 268 q 303 151 332 181 q 233 122 274 122 m 231 535 q 160 563 189 535 q 132 632 132 592 q 161 707 132 676 q 231 738 190 738 q 301 709 274 738 q 329 632 329 681 q 300 564 329 593 q 231 535 271 535 z "},"¦":{"ha":219,"x_min":28,"x_max":192,"o":"m 28 436 l 192 436 l 192 -29 l 28 -29 l 28 436 m 28 929 l 192 929 l 192 526 l 28 526 l 28 929 z "},"…":{"ha":665,"x_min":28,"x_max":638,"o":"m 126 0 q 56 28 85 0 q 28 97 28 57 q 57 172 28 142 q 126 203 86 203 q 197 174 169 203 q 225 97 225 146 q 196 29 225 58 q 126 0 167 0 m 332 0 q 262 28 290 0 q 233 97 233 57 q 263 172 233 142 q 332 203 292 203 q 403 174 375 203 q 431 97 431 146 q 401 29 431 58 q 332 0 372 0 m 539 0 q 469 28 497 0 q 440 97 440 57 q 469 172 440 142 q 539 203 499 203 q 610 174 582 203 q 638 97 638 146 q 608 29 638 58 q 539 0 579 0 z "},"·":{"ha":253,"x_min":28,"x_max":225,"o":"m 126 331 q 56 359 85 331 q 28 428 28 388 q 57 503 28 472 q 126 533 86 533 q 197 505 169 533 q 225 428 225 476 q 196 360 225 389 q 126 331 167 331 z "},"¡":{"ha":231,"x_min":28,"x_max":203,"o":"m 164 539 l 179 -176 l 60 -176 l 65 539 l 164 539 m 28 654 q 53 715 28 689 q 115 740 79 740 q 176 714 150 740 q 203 654 203 688 q 178 593 203 619 q 115 567 153 567 q 53 593 79 567 q 28 654 28 619 z "},"¿":{"ha":404,"x_min":28,"x_max":376,"o":"m 369 386 q 326 263 369 313 q 211 188 282 214 q 194 178 197 183 q 192 157 192 174 l 192 7 q 193 -18 192 -8 q 199 -28 194 -28 q 206 -18 204 -28 q 207 7 207 -8 l 207 167 l 371 167 l 371 -4 q 326 -135 371 -85 q 199 -186 281 -186 q 73 -135 118 -186 q 28 -4 28 -83 l 28 157 q 68 274 28 231 q 183 349 108 317 q 203 361 199 354 q 207 386 207 368 l 207 532 l 369 532 l 369 386 m 200 656 q 227 717 200 690 q 289 743 254 743 q 351 717 325 743 q 376 656 376 690 q 351 594 376 621 q 289 568 325 568 q 225 594 250 568 q 200 656 200 619 z "},"°":{"ha":333,"x_min":28,"x_max":306,"o":"m 167 619 q 65 666 101 619 q 28 768 28 713 q 65 871 28 825 q 168 917 101 917 q 269 871 233 917 q 306 768 306 825 q 269 666 306 713 q 167 619 232 619 m 143 767 q 149 751 143 758 q 167 743 156 743 q 184 751 178 743 q 190 767 190 758 q 184 785 190 776 q 167 793 178 793 q 149 785 156 793 q 143 767 143 776 z "},"⁄":{"ha":613,"x_min":28,"x_max":585,"o":"m 414 917 l 585 917 l 199 0 l 28 0 l 414 917 z "},"‰":{"ha":1321,"x_min":28,"x_max":1293,"o":"m 168 144 q 65 186 101 144 q 28 292 28 228 l 28 765 q 64 874 28 832 q 168 915 100 915 q 273 874 235 915 q 311 765 311 832 l 311 292 q 273 186 311 228 q 168 144 235 144 m 163 303 q 163 281 163 289 q 168 274 164 274 q 174 281 172 274 q 175 303 175 289 l 175 369 l 163 369 l 163 303 m 175 521 l 175 757 q 174 777 175 769 q 168 785 172 785 q 163 777 164 785 q 163 757 163 769 l 163 521 l 175 521 m 603 915 l 774 915 l 388 -1 l 217 -1 l 603 915 m 690 629 q 726 738 690 696 q 831 779 763 779 q 935 738 897 779 q 974 629 974 696 l 974 156 q 935 50 974 92 q 831 8 897 8 q 727 50 764 8 q 690 156 690 92 l 690 629 m 825 167 q 826 145 825 153 q 831 138 826 138 q 836 145 835 138 q 838 167 838 153 l 838 233 l 825 233 l 825 167 m 838 385 l 838 621 q 836 641 838 633 q 831 649 835 649 q 826 641 826 649 q 825 621 825 633 l 825 385 l 838 385 m 1010 629 q 1046 738 1010 696 q 1150 779 1082 779 q 1255 738 1217 779 q 1293 629 1293 696 l 1293 156 q 1255 50 1293 92 q 1150 8 1217 8 q 1047 50 1083 8 q 1010 156 1010 92 l 1010 629 m 1144 167 q 1145 145 1144 153 q 1150 138 1146 138 q 1156 145 1154 138 q 1157 167 1157 153 l 1157 233 l 1144 233 l 1144 167 m 1157 385 l 1157 621 q 1156 641 1157 633 q 1150 649 1154 649 q 1145 641 1146 649 q 1144 621 1144 633 l 1144 385 l 1157 385 z "},"¶":{"ha":588,"x_min":28,"x_max":560,"o":"m 200 169 q 74 220 119 169 q 28 350 28 271 l 28 738 q 74 866 28 815 q 200 917 119 917 q 326 866 282 917 q 371 738 371 815 l 371 0 l 207 0 l 207 169 l 200 169 m 192 365 q 200 328 192 328 q 207 364 207 328 l 207 721 q 206 749 207 738 q 200 760 204 760 q 193 749 194 760 q 192 721 192 738 l 192 365 m 396 917 l 560 917 l 560 0 l 396 0 l 396 917 z "},"§":{"ha":400,"x_min":28,"x_max":372,"o":"m 199 -99 q 72 -48 117 -99 q 28 82 28 3 l 28 188 l 192 188 l 192 92 q 193 69 192 78 q 199 61 194 61 q 206 69 204 61 q 207 92 207 78 l 207 179 q 205 197 207 194 q 189 203 203 200 q 29 396 29 244 l 29 468 q 54 572 29 529 q 29 676 29 617 l 29 749 q 74 878 29 828 q 200 929 118 929 q 326 878 281 929 q 372 749 372 828 l 372 663 l 207 663 l 207 736 q 206 761 207 751 q 200 771 204 771 q 193 761 194 771 q 192 736 192 751 l 192 675 q 197 652 192 658 q 221 639 201 646 q 334 574 297 610 q 371 465 371 538 l 371 363 q 351 269 371 313 q 371 186 371 235 l 371 82 q 325 -48 371 3 q 199 -99 279 -99 m 192 418 q 193 395 192 404 q 199 383 194 386 l 201 382 q 207 411 207 389 l 207 460 q 204 478 207 474 q 194 483 201 482 l 192 483 l 192 467 l 192 418 z "},"†":{"ha":389,"x_min":28,"x_max":361,"o":"m 111 753 l 28 753 l 28 917 l 111 917 l 111 996 l 275 996 l 275 917 l 361 917 l 361 753 l 275 753 l 275 381 l 111 381 l 111 753 z "},"‡":{"ha":389,"x_min":28,"x_max":361,"o":"m 111 571 l 28 571 l 28 735 l 111 735 l 111 753 l 28 753 l 28 917 l 111 917 l 111 996 l 275 996 l 275 917 l 361 917 l 361 753 l 275 753 l 275 735 l 361 735 l 361 571 l 275 571 l 275 381 l 111 381 l 111 571 z "},"~":{"ha":653,"x_min":28,"x_max":625,"o":"m 28 335 q 61 456 35 399 q 131 550 88 514 q 225 586 174 586 q 310 567 276 586 q 375 515 343 547 q 403 490 393 499 q 425 482 414 482 q 453 496 443 482 q 479 560 463 510 l 625 528 q 449 318 572 318 q 375 334 403 318 q 315 381 347 350 q 281 410 297 400 q 244 424 264 421 q 208 396 225 425 q 167 304 190 367 l 28 335 z "},"‹":{"ha":574,"x_min":28,"x_max":546,"o":"m 28 440 l 340 710 l 546 710 l 233 440 l 524 169 l 324 169 l 28 440 z "},"›":{"ha":574,"x_min":28,"x_max":546,"o":"m 50 169 l 340 440 l 28 710 l 233 710 l 546 440 l 250 169 l 50 169 z "},"«":{"ha":1015,"x_min":28,"x_max":988,"o":"m 28 440 l 340 710 l 546 710 l 233 440 l 524 169 l 324 169 l 28 440 m 469 433 l 782 703 l 988 703 l 675 433 l 965 163 l 765 163 l 469 433 z "},"»":{"ha":1015,"x_min":28,"x_max":988,"o":"m 492 157 l 782 428 l 469 697 l 675 697 l 988 428 l 692 157 l 492 157 m 233 690 l 546 421 l 250 150 l 50 150 l 340 421 l 28 690 l 233 690 z "},"`":{"ha":322,"x_min":28,"x_max":294,"o":"m 28 847 l 197 847 l 294 613 l 124 613 l 28 847 z "},"¨":{"ha":432,"x_min":28,"x_max":390,"o":"m 115 704 q 53 730 78 704 q 28 792 28 756 q 53 859 28 832 q 115 886 79 886 q 179 860 154 886 q 204 792 204 835 q 178 731 204 757 q 115 704 151 704 m 213 792 q 239 860 213 832 q 301 888 265 888 q 365 862 340 888 q 390 792 390 836 q 364 731 390 757 q 301 704 338 704 q 238 730 264 704 q 213 792 213 756 z "},"´":{"ha":322,"x_min":28,"x_max":294,"o":"m 28 613 l 125 847 l 294 847 l 199 613 l 28 613 z "},"¸":{"ha":385,"x_min":28,"x_max":357,"o":"m 28 -18 q 153 -22 126 -22 q 179 -20 174 -22 q 188 -12 185 -18 q 163 10 193 -1 q 57 38 133 21 l 158 208 l 322 208 l 274 113 q 336 57 315 89 q 357 -11 357 25 q 350 -56 357 -32 q 271 -145 332 -118 q 125 -172 210 -172 q 28 -164 74 -172 l 28 -18 z "},"ˆ":{"ha":436,"x_min":28,"x_max":408,"o":"m 221 968 l 408 646 l 229 649 l 218 669 l 206 647 l 28 647 l 221 968 z "},"ˇ":{"ha":436,"x_min":28,"x_max":408,"o":"m 206 981 l 218 958 l 229 979 l 408 982 l 221 660 l 28 981 l 206 981 z "},"˘":{"ha":475,"x_min":28,"x_max":447,"o":"m 235 706 q 94 767 151 706 q 28 935 38 829 l 185 935 q 203 878 190 892 q 235 864 217 864 q 265 877 253 864 q 283 935 276 890 l 447 935 q 372 766 425 826 q 235 706 318 706 z "},"˙":{"ha":261,"x_min":28,"x_max":233,"o":"m 131 711 q 58 742 88 711 q 28 814 28 772 q 58 885 28 853 q 131 917 89 917 q 203 887 174 917 q 233 814 233 857 q 202 742 233 774 q 131 711 171 711 z "},"˚":{"ha":333,"x_min":28,"x_max":306,"o":"m 167 618 q 65 665 101 618 q 28 767 28 711 q 65 869 28 824 q 168 915 101 915 q 269 869 233 915 q 306 767 306 824 q 269 665 306 711 q 167 618 232 618 m 143 765 q 149 749 143 757 q 167 742 156 742 q 184 749 178 742 q 190 765 190 757 q 184 783 190 775 q 167 792 178 792 q 149 783 156 792 q 143 765 143 775 z "},"˛":{"ha":364,"x_min":28,"x_max":336,"o":"m 336 -85 q 185 -129 261 -129 q 90 -104 129 -129 q 35 -37 50 -79 q 28 8 28 -14 q 74 121 28 69 q 214 193 119 172 l 256 176 l 290 61 q 204 30 224 39 q 186 15 185 21 q 210 13 189 7 q 293 50 231 19 l 336 -85 z "},"˝":{"ha":538,"x_min":28,"x_max":510,"o":"m 139 917 l 310 917 l 203 675 l 28 675 l 139 917 m 338 917 l 510 917 l 401 675 l 226 675 l 338 917 z "},"ª":{"ha":301,"x_min":28,"x_max":274,"o":"m 150 396 q 60 431 92 396 q 28 524 28 467 l 28 635 q 60 728 28 692 q 150 764 92 764 l 156 764 l 156 786 q 155 800 156 796 q 150 804 154 804 q 147 800 147 804 q 146 786 146 796 l 146 771 l 28 771 l 28 789 q 60 882 28 846 q 150 918 92 918 q 241 882 208 918 q 274 789 274 846 l 274 524 q 241 432 274 468 q 150 396 208 396 m 146 525 q 147 512 146 517 q 150 507 147 507 q 155 512 154 507 q 156 525 156 517 l 156 650 l 150 650 q 147 647 147 650 q 146 633 146 643 l 146 525 z "},"¹":{"ha":224,"x_min":28,"x_max":196,"o":"m 94 788 l 65 775 l 28 865 l 94 897 l 94 921 l 196 921 l 196 347 l 94 347 l 94 788 z "},"º":{"ha":246,"x_min":28,"x_max":218,"o":"m 122 513 q 52 540 76 513 q 28 613 28 568 l 28 818 q 52 890 28 863 q 122 918 76 918 q 192 890 167 918 q 218 818 218 863 l 218 613 q 192 540 218 568 q 122 513 167 513 m 118 617 q 119 603 118 608 q 122 599 119 599 q 127 603 126 599 q 128 617 128 608 l 128 814 q 127 826 128 822 q 122 831 126 831 q 119 826 119 831 q 118 814 118 822 l 118 617 z "},"¼":{"ha":788,"x_min":28,"x_max":760,"o":"m 100 776 l 69 763 l 28 860 l 100 893 l 100 918 l 208 918 l 208 307 l 100 307 l 100 776 m 433 917 l 582 917 l 244 -3 l 94 -3 l 433 917 m 488 575 l 597 575 l 597 264 l 604 264 l 604 354 l 713 354 l 713 264 l 760 264 l 760 154 l 713 154 l 713 -36 l 604 -36 l 604 154 l 488 154 l 488 575 z "},"½":{"ha":731,"x_min":28,"x_max":703,"o":"m 100 779 l 69 765 l 28 863 l 100 896 l 100 921 l 208 921 l 208 310 l 100 310 l 100 779 m 446 917 l 585 917 l 271 0 l 132 0 l 446 917 m 474 501 q 504 589 474 556 q 589 622 535 622 q 673 588 643 622 q 703 501 703 554 l 703 360 q 681 287 703 317 q 626 240 658 257 q 596 219 606 229 q 586 189 586 208 l 586 111 l 696 111 l 696 3 l 478 3 l 478 182 q 578 331 478 278 q 590 342 586 336 q 593 360 593 349 l 593 496 q 592 511 593 506 q 589 517 592 517 q 584 511 585 517 q 583 496 583 506 l 583 426 l 474 426 l 474 501 z "},"¾":{"ha":819,"x_min":28,"x_max":792,"o":"m 147 289 q 63 322 93 289 q 33 410 33 356 l 33 485 l 142 485 l 142 421 q 147 394 142 394 q 152 402 151 394 q 153 421 153 410 l 153 535 q 147 556 153 551 q 114 563 142 561 l 114 661 l 131 661 q 144 664 140 661 q 147 678 147 667 l 147 790 q 147 806 147 800 q 143 811 146 811 q 138 806 139 811 q 138 790 138 800 l 138 721 l 28 721 l 28 796 q 58 883 28 850 q 143 917 89 917 q 227 883 197 917 q 257 796 257 849 l 257 663 q 249 617 257 638 q 261 571 261 594 l 261 410 q 231 322 261 356 q 147 289 201 289 m 465 917 l 599 917 l 297 -3 l 164 -3 l 465 917 m 519 575 l 629 575 l 629 264 l 636 264 l 636 354 l 744 354 l 744 264 l 792 264 l 792 154 l 744 154 l 744 -36 l 636 -36 l 636 154 l 519 154 l 519 575 z "},"²":{"ha":285,"x_min":28,"x_max":257,"o":"m 32 476 q 132 625 32 572 q 144 637 140 631 q 147 654 147 643 l 147 790 q 147 806 147 800 q 143 811 146 811 q 138 806 139 811 q 138 790 138 800 l 138 721 l 28 721 l 28 796 q 58 883 28 850 q 143 917 89 917 q 227 883 197 917 q 257 796 257 849 l 257 654 q 235 581 257 611 q 181 535 213 551 q 150 513 160 524 q 140 483 140 503 l 140 406 l 250 406 l 250 297 l 32 297 l 32 476 z "},"³":{"ha":289,"x_min":28,"x_max":261,"o":"m 147 289 q 63 322 93 289 q 33 410 33 356 l 33 485 l 142 485 l 142 421 q 147 394 142 394 q 152 402 151 394 q 153 421 153 410 l 153 535 q 147 556 153 551 q 114 563 142 561 l 114 661 l 131 661 q 144 664 140 661 q 147 678 147 667 l 147 790 q 147 806 147 800 q 143 811 146 811 q 138 806 139 811 q 138 790 138 800 l 138 721 l 28 721 l 28 796 q 58 883 28 850 q 143 917 89 917 q 227 883 197 917 q 257 796 257 849 l 257 663 q 249 617 257 638 q 261 571 261 594 l 261 410 q 231 322 261 356 q 147 289 201 289 z "},"Á":{"ha":476,"x_min":28,"x_max":449,"o":"m 164 917 l 314 917 l 449 0 l 288 0 l 274 94 l 203 94 l 189 0 l 28 0 l 164 917 m 251 247 l 239 335 l 225 247 l 251 247 z "},"Ă":{"ha":476,"x_min":28,"x_max":469,"o":"m 164 917 l 314 917 l 449 0 l 288 0 l 274 94 l 203 94 l 189 0 l 28 0 l 164 917 m 251 247 l 239 335 l 225 247 l 251 247 z "},"Â":{"ha":476,"x_min":28,"x_max":449,"o":"m 164 917 l 314 917 l 449 0 l 288 0 l 274 94 l 203 94 l 189 0 l 28 0 l 164 917 m 251 247 l 239 335 l 225 247 l 251 247 z "},"Ä":{"ha":476,"x_min":28,"x_max":451,"o":"m 164 917 l 314 917 l 449 0 l 288 0 l 274 94 l 203 94 l 189 0 l 28 0 l 164 917 m 251 247 l 239 335 l 225 247 l 251 247 m 131 938 q 58 967 88 938 q 28 1039 28 997 q 58 1118 28 1086 q 131 1150 89 1150 q 204 1119 175 1150 q 233 1039 233 1089 q 203 968 233 999 q 131 938 172 938 m 243 1040 q 274 1120 243 1089 q 347 1151 304 1151 q 422 1122 392 1151 q 451 1040 451 1092 q 420 969 451 999 q 347 939 389 939 q 273 969 303 939 q 243 1040 243 999 z "},"À":{"ha":476,"x_min":28,"x_max":449,"o":"m 164 917 l 314 917 l 449 0 l 288 0 l 274 94 l 203 94 l 189 0 l 28 0 l 164 917 m 251 247 l 239 335 l 225 247 l 251 247 z "},"Ā":{"ha":476,"x_min":28,"x_max":449,"o":"m 164 917 l 314 917 l 449 0 l 288 0 l 274 94 l 203 94 l 189 0 l 28 0 l 164 917 m 251 247 l 239 335 l 225 247 l 251 247 m 68 1147 l 439 1147 l 439 982 l 68 982 l 68 1147 z "},"Ą":{"ha":521,"x_min":28,"x_max":493,"o":"m 164 917 l 314 917 l 449 0 l 443 0 q 361 -30 381 -21 q 343 -44 342 -39 q 367 -47 346 -53 q 450 -10 388 -40 l 493 -144 q 342 -189 418 -189 q 247 -164 286 -189 q 192 -97 207 -139 q 185 -51 185 -74 q 206 28 185 -10 q 272 94 228 67 l 203 94 l 189 0 l 28 0 l 164 917 m 251 247 l 239 335 l 225 247 l 251 247 z "},"Å":{"ha":476,"x_min":28,"x_max":449,"o":"m 164 917 l 314 917 l 449 0 l 288 0 l 274 94 l 203 94 l 189 0 l 28 0 l 164 917 m 251 247 l 239 335 l 225 247 l 251 247 z "},"Ã":{"ha":476,"x_min":-3,"x_max":468,"o":"m 164 917 l 314 917 l 449 0 l 288 0 l 274 94 l 203 94 l 189 0 l 28 0 l 164 917 m 251 247 l 239 335 l 225 247 l 251 247 z "},"Æ":{"ha":628,"x_min":28,"x_max":600,"o":"m 158 917 l 600 917 l 600 761 l 464 761 l 464 551 l 578 551 l 578 397 l 464 397 l 464 154 l 600 154 l 600 0 l 278 0 l 264 94 l 196 94 l 183 0 l 28 0 l 158 917 m 243 247 l 231 335 l 217 247 l 243 247 z "},"Ć":{"ha":399,"x_min":28,"x_max":379,"o":"m 199 -12 q 72 38 117 -12 q 28 167 28 88 l 28 749 q 72 878 28 828 q 199 929 117 929 q 325 878 279 929 q 371 749 371 828 l 371 576 l 207 576 l 207 747 q 199 771 207 771 q 192 747 192 771 l 192 172 q 193 151 192 160 q 199 143 194 143 q 206 151 204 143 q 207 172 207 160 l 207 335 l 371 335 l 371 167 q 325 38 371 88 q 199 -12 279 -12 z "},"Č":{"ha":399,"x_min":6,"x_max":386,"o":"m 199 -12 q 72 38 117 -12 q 28 167 28 88 l 28 749 q 72 878 28 828 q 199 929 117 929 q 325 878 279 929 q 371 749 371 828 l 371 576 l 207 576 l 207 747 q 199 771 207 771 q 192 747 192 771 l 192 172 q 193 151 192 160 q 199 143 194 143 q 206 151 204 143 q 207 172 207 160 l 207 335 l 371 335 l 371 167 q 325 38 371 88 q 199 -12 279 -12 z "},"Ç":{"ha":399,"x_min":0,"x_max":371,"o":"m 0 -156 q 125 -160 99 -160 q 151 -158 146 -160 q 160 -150 157 -156 q 135 -128 165 -139 q 29 -100 106 -117 l 97 15 q 45 78 63 39 q 28 167 28 117 l 28 749 q 72 878 28 828 q 199 929 117 929 q 325 878 279 929 q 371 749 371 828 l 371 576 l 207 576 l 207 747 q 199 771 207 771 q 192 747 192 771 l 192 172 q 193 151 192 160 q 199 143 194 143 q 206 151 204 143 q 207 172 207 160 l 207 335 l 371 335 l 371 167 q 341 58 371 104 q 256 -4 311 13 l 246 -25 q 308 -81 288 -49 q 329 -149 329 -112 q 322 -193 329 -169 q 243 -283 304 -256 q 97 -310 182 -310 q 0 -301 46 -310 l 0 -156 z "},"Ċ":{"ha":399,"x_min":28,"x_max":371,"o":"m 199 -12 q 72 38 117 -12 q 28 167 28 88 l 28 749 q 72 878 28 828 q 199 929 117 929 q 325 878 279 929 q 371 749 371 828 l 371 576 l 207 576 l 207 747 q 199 771 207 771 q 192 747 192 771 l 192 172 q 193 151 192 160 q 199 143 194 143 q 206 151 204 143 q 207 172 207 160 l 207 335 l 371 335 l 371 167 q 325 38 371 88 q 199 -12 279 -12 z "},"Ð":{"ha":540,"x_min":28,"x_max":513,"o":"m 172 396 l 28 396 l 28 561 l 172 561 l 172 917 l 317 917 q 466 872 419 917 q 513 742 513 826 l 513 174 q 467 44 513 89 q 317 0 421 0 l 172 0 l 172 396 m 336 156 q 348 160 346 157 q 350 174 350 164 l 350 742 q 348 756 350 753 q 336 761 346 760 l 336 561 l 349 561 l 349 396 l 336 396 l 336 156 z "},"Ď":{"ha":396,"x_min":-17,"x_max":368,"o":"m 28 917 l 172 917 q 322 872 275 917 q 368 742 368 826 l 368 174 q 322 44 368 89 q 172 0 276 0 l 28 0 l 28 917 m 192 156 q 203 160 201 157 q 206 174 206 164 l 206 742 q 203 756 206 753 q 192 761 201 760 l 192 156 z "},"Đ":{"ha":497,"x_min":28,"x_max":513,"o":"m 172 396 l 28 396 l 28 561 l 172 561 l 172 917 l 317 917 q 466 872 419 917 q 513 742 513 826 l 513 174 q 467 44 513 89 q 317 0 421 0 l 172 0 l 172 396 m 336 156 q 348 160 346 157 q 350 174 350 164 l 350 742 q 348 756 350 753 q 336 761 346 760 l 336 561 l 349 561 l 349 396 l 336 396 l 336 156 z "},"É":{"ha":356,"x_min":28,"x_max":347,"o":"m 28 917 l 328 917 l 328 761 l 192 761 l 192 551 l 306 551 l 306 397 l 192 397 l 192 154 l 328 154 l 328 0 l 28 0 l 28 917 z "},"Ě":{"ha":436,"x_min":28,"x_max":408,"o":"m 82 917 l 382 917 l 382 761 l 246 761 l 246 551 l 360 551 l 360 397 l 246 397 l 246 154 l 382 154 l 382 0 l 82 0 l 82 917 z "},"Ê":{"ha":436,"x_min":28,"x_max":408,"o":"m 85 917 l 385 917 l 385 761 l 249 761 l 249 551 l 363 551 l 363 397 l 249 397 l 249 154 l 385 154 l 385 0 l 85 0 l 85 917 z "},"Ë":{"ha":494,"x_min":28,"x_max":451,"o":"m 103 917 l 403 917 l 403 761 l 267 761 l 267 551 l 381 551 l 381 397 l 267 397 l 267 154 l 403 154 l 403 0 l 103 0 l 103 917 m 131 942 q 58 972 88 942 q 28 1043 28 1001 q 58 1122 28 1090 q 131 1154 89 1154 q 204 1124 175 1154 q 233 1043 233 1093 q 203 972 233 1003 q 131 942 172 942 m 243 1044 q 274 1124 243 1093 q 347 1156 304 1156 q 422 1126 392 1156 q 451 1044 451 1096 q 420 973 451 1003 q 347 943 389 943 q 273 973 303 943 q 243 1044 243 1003 z "},"Ė":{"ha":356,"x_min":28,"x_max":328,"o":"m 28 917 l 328 917 l 328 761 l 192 761 l 192 551 l 306 551 l 306 397 l 192 397 l 192 154 l 328 154 l 328 0 l 28 0 l 28 917 z "},"È":{"ha":394,"x_min":28,"x_max":367,"o":"m 67 917 l 367 917 l 367 761 l 231 761 l 231 551 l 344 551 l 344 397 l 231 397 l 231 154 l 367 154 l 367 0 l 67 0 l 67 917 z "},"Ē":{"ha":356,"x_min":28,"x_max":328,"o":"m 28 917 l 328 917 l 328 761 l 192 761 l 192 551 l 306 551 l 306 397 l 192 397 l 192 154 l 328 154 l 328 0 l 28 0 l 28 917 m 35 1151 l 315 1151 l 315 986 l 35 986 l 35 1151 z "},"Ę":{"ha":399,"x_min":28,"x_max":371,"o":"m 28 917 l 328 917 l 328 761 l 192 761 l 192 551 l 306 551 l 306 397 l 192 397 l 192 154 l 328 154 l 328 0 l 313 0 q 236 -28 253 -21 q 221 -42 219 -36 q 244 -44 224 -50 q 328 -7 265 -37 l 371 -142 q 219 -186 296 -186 q 124 -161 164 -186 q 69 -94 85 -136 q 63 -49 63 -71 q 69 0 63 -28 l 28 0 l 28 917 z "},"Ğ":{"ha":399,"x_min":-19,"x_max":400,"o":"m 199 -12 q 72 38 117 -12 q 28 167 28 88 l 28 749 q 72 878 28 828 q 199 929 117 929 q 326 878 281 929 q 371 747 371 828 l 371 576 l 207 576 l 207 739 q 206 763 207 754 q 199 771 204 771 q 193 763 194 771 q 192 739 192 754 l 192 175 q 193 152 192 161 q 199 143 194 143 q 206 152 204 143 q 207 175 207 161 l 207 397 l 199 397 l 199 551 l 371 551 l 371 165 q 325 37 371 86 q 199 -12 279 -12 z "},"Ģ":{"ha":399,"x_min":26,"x_max":371,"o":"m 199 -12 q 72 38 117 -12 q 28 167 28 88 l 28 749 q 72 878 28 828 q 199 929 117 929 q 326 878 281 929 q 371 747 371 828 l 371 576 l 207 576 l 207 739 q 206 763 207 754 q 199 771 204 771 q 193 763 194 771 q 192 739 192 754 l 192 175 q 193 152 192 161 q 199 143 194 143 q 206 152 204 143 q 207 175 207 161 l 207 397 l 199 397 l 199 551 l 371 551 l 371 165 q 325 37 371 86 q 199 -12 279 -12 z "},"Ġ":{"ha":399,"x_min":28,"x_max":371,"o":"m 199 -12 q 72 38 117 -12 q 28 167 28 88 l 28 749 q 72 878 28 828 q 199 929 117 929 q 326 878 281 929 q 371 747 371 828 l 371 576 l 207 576 l 207 739 q 206 763 207 754 q 199 771 204 771 q 193 763 194 771 q 192 739 192 754 l 192 175 q 193 152 192 161 q 199 143 194 143 q 206 152 204 143 q 207 175 207 161 l 207 397 l 199 397 l 199 551 l 371 551 l 371 165 q 325 37 371 86 q 199 -12 279 -12 z "},"Ħ":{"ha":533,"x_min":28,"x_max":506,"o":"m 79 588 l 28 588 l 28 742 l 79 742 l 79 917 l 243 917 l 243 742 l 289 742 l 289 917 l 454 917 l 454 742 l 506 742 l 506 588 l 454 588 l 454 0 l 289 0 l 289 397 l 243 397 l 243 0 l 79 0 l 79 588 m 289 551 l 289 588 l 243 588 l 243 551 l 289 551 z "},"Í":{"ha":357,"x_min":63,"x_max":329,"o":"m 71 917 l 235 917 l 235 0 l 71 0 l 71 917 z "},"Î":{"ha":436,"x_min":28,"x_max":408,"o":"m 128 917 l 292 917 l 292 0 l 128 0 l 128 917 z "},"Ï":{"ha":494,"x_min":28,"x_max":451,"o":"m 168 917 l 332 917 l 332 0 l 168 0 l 168 917 m 131 947 q 58 977 88 947 q 28 1049 28 1007 q 58 1128 28 1096 q 131 1160 89 1160 q 204 1129 175 1160 q 233 1049 233 1099 q 203 978 233 1008 q 131 947 172 947 m 243 1050 q 274 1130 243 1099 q 347 1161 304 1161 q 422 1131 392 1161 q 451 1050 451 1101 q 420 978 451 1008 q 347 949 389 949 q 273 978 303 949 q 243 1050 243 1008 z "},"İ":{"ha":261,"x_min":28,"x_max":233,"o":"m 39 917 l 203 917 l 203 0 l 39 0 l 39 917 m 131 944 q 58 975 88 944 q 28 1047 28 1006 q 58 1118 28 1086 q 131 1150 89 1150 q 203 1120 174 1150 q 233 1047 233 1090 q 202 976 233 1007 q 131 944 171 944 z "},"Ì":{"ha":322,"x_min":28,"x_max":294,"o":"m 113 917 l 276 917 l 276 0 l 113 0 l 113 917 z "},"Ī":{"ha":426,"x_min":28,"x_max":399,"o":"m 115 917 l 279 917 l 279 0 l 115 0 l 115 917 m 28 1151 l 399 1151 l 399 986 l 28 986 l 28 1151 z "},"Į":{"ha":379,"x_min":18,"x_max":326,"o":"m 326 -144 q 175 -189 251 -189 q 80 -164 119 -189 q 25 -97 40 -139 q 18 -51 18 -74 q 44 35 18 -7 q 122 104 69 76 l 122 917 l 286 917 l 286 0 l 276 0 q 194 -30 214 -21 q 176 -44 175 -39 q 200 -47 179 -53 q 283 -10 221 -40 l 326 -144 z "},"Ķ":{"ha":474,"x_min":28,"x_max":446,"o":"m 28 917 l 193 917 l 189 619 l 257 917 l 424 917 l 243 346 l 446 0 l 272 0 l 192 167 l 192 0 l 28 0 l 28 917 z "},"Ĺ":{"ha":356,"x_min":28,"x_max":339,"o":"m 28 917 l 192 917 l 192 154 l 328 154 l 328 0 l 28 0 l 28 917 z "},"Ľ":{"ha":436,"x_min":28,"x_max":408,"o":"m 90 917 l 254 917 l 254 154 l 390 154 l 390 0 l 90 0 l 90 917 z "},"Ļ":{"ha":356,"x_min":13,"x_max":328,"o":"m 28 917 l 192 917 l 192 154 l 328 154 l 328 0 l 28 0 l 28 917 z "},"Ł":{"ha":506,"x_min":28,"x_max":478,"o":"m 167 424 l 85 394 l 28 550 l 167 600 l 167 917 l 331 917 l 331 660 l 421 693 l 478 538 l 331 483 l 331 154 l 467 154 l 467 0 l 167 0 l 167 424 z "},"Ń":{"ha":435,"x_min":28,"x_max":407,"o":"m 28 917 l 192 917 l 192 731 l 244 606 l 244 917 l 407 917 l 407 0 l 244 0 l 244 282 l 192 403 l 192 0 l 28 0 l 28 917 z "},"Ň":{"ha":435,"x_min":25,"x_max":407,"o":"m 28 917 l 192 917 l 192 731 l 244 606 l 244 917 l 407 917 l 407 0 l 244 0 l 244 282 l 192 403 l 192 0 l 28 0 l 28 917 z "},"Ņ":{"ha":435,"x_min":28,"x_max":407,"o":"m 28 917 l 192 917 l 192 731 l 244 606 l 244 917 l 407 917 l 407 0 l 244 0 l 244 282 l 192 403 l 192 0 l 28 0 l 28 917 z "},"Ñ":{"ha":525,"x_min":26,"x_max":497,"o":"m 81 917 l 244 917 l 244 731 l 297 606 l 297 917 l 460 917 l 460 0 l 297 0 l 297 282 l 244 403 l 244 0 l 81 0 l 81 917 z "},"Ŋ":{"ha":435,"x_min":28,"x_max":407,"o":"m 131 -18 q 169 -21 158 -21 q 226 -6 208 -21 q 244 40 244 8 l 244 199 l 192 319 l 192 0 l 28 0 l 28 917 l 192 917 l 192 731 l 244 606 l 244 917 l 407 917 l 407 38 q 376 -76 407 -24 q 290 -160 344 -129 q 172 -192 236 -192 q 131 -189 144 -192 l 131 -18 z "},"Ó":{"ha":399,"x_min":28,"x_max":378,"o":"m 199 -4 q 72 47 117 -4 q 28 175 28 97 l 28 736 q 72 866 28 815 q 199 917 117 917 q 325 866 279 917 q 371 736 371 815 l 371 175 q 325 47 371 97 q 199 -4 279 -4 m 192 186 q 193 162 192 171 q 199 153 194 153 q 206 162 204 153 q 207 186 207 171 l 207 728 q 206 751 207 746 q 199 757 204 757 q 192 749 193 757 q 192 728 192 742 l 192 186 z "},"Ô":{"ha":399,"x_min":1,"x_max":382,"o":"m 199 -4 q 72 47 117 -4 q 28 175 28 97 l 28 736 q 72 866 28 815 q 199 917 117 917 q 325 866 279 917 q 371 736 371 815 l 371 175 q 325 47 371 97 q 199 -4 279 -4 m 192 186 q 193 162 192 171 q 199 153 194 153 q 206 162 204 153 q 207 186 207 171 l 207 728 q 206 751 207 746 q 199 757 204 757 q 192 749 193 757 q 192 728 192 742 l 192 186 z "},"Ö":{"ha":399,"x_min":-17,"x_max":407,"o":"m 199 -4 q 72 47 117 -4 q 28 175 28 97 l 28 736 q 72 866 28 815 q 199 917 117 917 q 325 866 279 917 q 371 736 371 815 l 371 175 q 325 47 371 97 q 199 -4 279 -4 m 192 186 q 193 162 192 171 q 199 153 194 153 q 206 162 204 153 q 207 186 207 171 l 207 728 q 206 751 207 746 q 199 757 204 757 q 192 749 193 757 q 192 728 192 742 l 192 186 m 86 933 q 13 963 43 933 q -17 1035 -17 993 q 14 1114 -17 1082 q 86 1146 44 1146 q 160 1115 131 1146 q 189 1035 189 1085 q 158 964 189 994 q 86 933 128 933 m 199 1036 q 229 1116 199 1085 q 303 1147 260 1147 q 377 1117 347 1147 q 407 1036 407 1088 q 376 965 407 994 q 303 935 344 935 q 228 965 258 935 q 199 1036 199 994 z "},"Ò":{"ha":399,"x_min":19,"x_max":371,"o":"m 199 -4 q 72 47 117 -4 q 28 175 28 97 l 28 736 q 72 866 28 815 q 199 917 117 917 q 325 866 279 917 q 371 736 371 815 l 371 175 q 325 47 371 97 q 199 -4 279 -4 m 192 186 q 193 162 192 171 q 199 153 194 153 q 206 162 204 153 q 207 186 207 171 l 207 728 q 206 751 207 746 q 199 757 204 757 q 192 749 193 757 q 192 728 192 742 l 192 186 z "},"Ő":{"ha":538,"x_min":28,"x_max":510,"o":"m 213 -4 q 86 47 131 -4 q 42 175 42 97 l 42 736 q 86 866 42 815 q 213 917 131 917 q 339 866 293 917 q 385 736 385 815 l 385 175 q 339 47 385 97 q 213 -4 293 -4 m 206 186 q 207 162 206 171 q 213 153 208 153 q 219 162 218 153 q 221 186 221 171 l 221 728 q 219 751 221 746 q 213 757 218 757 q 206 749 207 757 q 206 728 206 742 l 206 186 z "},"Ō":{"ha":426,"x_min":28,"x_max":399,"o":"m 203 -4 q 76 47 121 -4 q 32 175 32 97 l 32 736 q 76 866 32 815 q 203 917 121 917 q 329 866 283 917 q 375 736 375 815 l 375 175 q 329 47 375 97 q 203 -4 283 -4 m 196 186 q 197 162 196 171 q 203 153 199 153 q 210 162 208 153 q 211 186 211 171 l 211 728 q 210 751 211 746 q 203 757 208 757 q 197 749 197 757 q 196 728 196 742 l 196 186 m 28 1143 l 399 1143 l 399 978 l 28 978 l 28 1143 z "},"Ø":{"ha":613,"x_min":28,"x_max":585,"o":"m 293 -4 q 226 7 257 -4 l 199 -72 l 28 -72 l 122 199 l 122 736 q 167 866 122 815 q 293 917 211 917 q 367 903 332 917 l 414 1038 l 585 1038 l 465 694 l 465 175 q 419 47 465 97 q 293 -4 374 -4 m 286 179 q 288 160 286 167 q 293 153 289 153 q 300 162 299 153 q 301 186 301 171 l 301 224 l 286 179 m 301 714 l 301 728 q 300 751 301 746 q 293 757 299 757 q 287 749 288 757 q 286 728 286 742 l 286 671 l 301 714 z "},"Õ":{"ha":399,"x_min":-22,"x_max":401,"o":"m 199 -4 q 72 47 117 -4 q 28 175 28 97 l 28 736 q 72 866 28 815 q 199 917 117 917 q 325 866 279 917 q 371 736 371 815 l 371 175 q 325 47 371 97 q 199 -4 279 -4 m -21 949 q -2 1034 -22 994 q 53 1098 18 1074 q 128 1122 88 1122 q 169 1115 146 1122 l 210 1103 q 218 1100 214 1101 q 229 1099 222 1099 q 264 1132 250 1099 l 401 1100 q 349 989 392 1033 q 256 944 307 944 q 219 951 240 944 l 182 965 q 153 972 164 972 q 135 964 143 972 q 119 935 128 956 l -21 949 m 192 186 q 193 162 192 171 q 199 153 194 153 q 206 162 204 153 q 207 186 207 171 l 207 728 q 206 751 207 746 q 199 757 204 757 q 192 749 193 757 q 192 728 192 742 l 192 186 z "},"Œ":{"ha":539,"x_min":28,"x_max":511,"o":"m 199 -4 q 72 47 117 -4 q 28 175 28 97 l 28 736 q 72 866 28 815 q 199 917 117 917 l 211 917 l 211 917 l 511 917 l 511 761 l 375 761 l 375 551 l 489 551 l 489 397 l 375 397 l 375 154 l 511 154 l 511 0 l 240 0 q 199 -4 222 -4 m 192 186 q 193 162 192 171 q 199 153 194 153 q 206 162 204 153 q 207 186 207 171 l 207 728 q 206 751 207 746 q 199 757 204 757 q 192 749 193 757 q 192 728 192 742 l 192 186 z "},"Þ":{"ha":399,"x_min":28,"x_max":371,"o":"m 28 917 l 192 917 l 192 817 l 197 817 q 325 767 279 818 q 371 636 371 717 l 371 318 q 325 189 371 239 q 199 139 279 139 l 192 139 l 192 0 l 28 0 l 28 917 m 199 296 q 206 299 206 296 q 207 321 207 303 l 207 635 q 206 656 207 653 q 199 658 206 658 l 192 658 l 192 296 l 199 296 z "},"Ŕ":{"ha":385,"x_min":28,"x_max":357,"o":"m 28 917 l 174 917 q 308 872 258 917 q 357 758 357 828 l 357 557 q 336 474 357 507 q 357 376 357 439 l 357 0 l 206 0 l 206 376 q 204 392 206 386 q 199 397 203 397 l 192 397 l 192 0 l 28 0 l 28 917 m 192 544 q 203 547 201 544 q 206 557 206 549 l 206 778 q 203 785 206 783 q 192 786 201 786 l 192 544 z "},"Ř":{"ha":385,"x_min":-40,"x_max":357,"o":"m 28 917 l 174 917 q 308 872 258 917 q 357 758 357 828 l 357 557 q 336 474 357 507 q 357 376 357 439 l 357 0 l 206 0 l 206 376 q 204 392 206 386 q 199 397 203 397 l 192 397 l 192 0 l 28 0 l 28 917 m 192 544 q 203 547 201 544 q 206 557 206 549 l 206 778 q 203 785 206 783 q 192 786 201 786 l 192 544 z "},"Ŗ":{"ha":385,"x_min":28,"x_max":357,"o":"m 28 917 l 174 917 q 308 872 258 917 q 357 758 357 828 l 357 557 q 336 474 357 507 q 357 376 357 439 l 357 0 l 206 0 l 206 376 q 204 392 206 386 q 199 397 203 397 l 192 397 l 192 0 l 28 0 l 28 917 m 192 544 q 203 547 201 544 q 206 557 206 549 l 206 778 q 203 785 206 783 q 192 786 201 786 l 192 544 z "},"Ś":{"ha":400,"x_min":28,"x_max":375,"o":"m 200 -12 q 74 38 119 -12 q 28 167 28 88 l 28 335 l 192 335 l 192 169 q 193 147 192 150 q 200 143 194 143 q 206 149 206 143 q 207 169 207 154 l 207 357 q 203 382 207 375 q 183 394 200 389 q 69 469 108 426 q 29 586 29 513 l 29 747 q 74 878 29 826 q 200 929 118 929 q 326 878 281 929 q 372 747 372 826 l 372 576 l 207 576 l 207 747 q 206 766 207 761 q 200 771 206 771 q 193 768 194 771 q 192 747 192 765 l 192 586 q 195 565 192 571 q 213 556 199 560 q 327 480 283 529 q 371 357 371 431 l 371 167 q 326 38 371 88 q 200 -12 282 -12 z "},"Š":{"ha":400,"x_min":1,"x_max":382,"o":"m 200 -12 q 74 38 119 -12 q 28 167 28 88 l 28 335 l 192 335 l 192 169 q 193 147 192 150 q 200 143 194 143 q 206 149 206 143 q 207 169 207 154 l 207 357 q 203 382 207 375 q 183 394 200 389 q 69 469 108 426 q 29 586 29 513 l 29 747 q 74 878 29 826 q 200 929 118 929 q 326 878 281 929 q 372 747 372 826 l 372 576 l 207 576 l 207 747 q 206 766 207 761 q 200 771 206 771 q 193 768 194 771 q 192 747 192 765 l 192 586 q 195 565 192 571 q 213 556 199 560 q 327 480 283 529 q 371 357 371 431 l 371 167 q 326 38 371 88 q 200 -12 282 -12 z "},"Ş":{"ha":400,"x_min":8,"x_max":372,"o":"m 8 -139 q 133 -143 107 -143 q 160 -141 154 -143 q 168 -133 165 -139 q 144 -111 174 -122 q 38 -83 114 -100 l 97 17 q 46 79 64 40 q 28 167 28 118 l 28 335 l 192 335 l 192 169 q 193 147 192 150 q 200 143 194 143 q 206 149 206 143 q 207 169 207 154 l 207 357 q 203 382 207 375 q 183 394 200 389 q 69 469 108 426 q 29 586 29 513 l 29 747 q 74 878 29 826 q 200 929 118 929 q 326 878 281 929 q 372 747 372 826 l 372 576 l 207 576 l 207 747 q 206 766 207 761 q 200 771 206 771 q 193 768 194 771 q 192 747 192 765 l 192 586 q 195 565 192 571 q 213 556 199 560 q 327 480 283 529 q 371 357 371 431 l 371 167 q 341 57 371 103 q 256 -6 311 11 l 254 -8 q 317 -64 296 -32 q 338 -132 338 -96 q 331 -176 338 -153 q 251 -266 313 -239 q 106 -293 190 -293 q 8 -285 54 -293 l 8 -139 z "},"Ș":{"ha":400,"x_min":28,"x_max":372,"o":"m 200 -12 q 74 38 119 -12 q 28 167 28 88 l 28 335 l 192 335 l 192 169 q 193 147 192 150 q 200 143 194 143 q 206 149 206 143 q 207 169 207 154 l 207 357 q 203 382 207 375 q 183 394 200 389 q 69 469 108 426 q 29 586 29 513 l 29 747 q 74 878 29 826 q 200 929 118 929 q 326 878 281 929 q 372 747 372 826 l 372 576 l 207 576 l 207 747 q 206 766 207 761 q 200 771 206 771 q 193 768 194 771 q 192 747 192 765 l 192 586 q 195 565 192 571 q 213 556 199 560 q 327 480 283 529 q 371 357 371 431 l 371 167 q 326 38 371 88 q 200 -12 282 -12 z "},"ẞ":{"ha":433,"x_min":28,"x_max":461,"o":"m 28 917 l 461 917 l 411 549 q 405 515 408 528 q 392 490 401 503 q 424 399 424 456 l 424 168 q 374 40 424 81 q 214 0 325 -1 l 214 150 l 228 150 q 256 153 250 150 q 261 168 261 156 l 261 381 q 253 396 261 392 q 224 400 244 400 l 224 546 q 248 551 243 546 q 254 569 253 557 l 275 761 l 192 761 l 192 0 l 28 0 l 28 917 z "},"Ŧ":{"ha":474,"x_min":28,"x_max":446,"o":"m 151 429 l 28 429 l 28 594 l 151 594 l 151 764 l 69 764 l 69 917 l 394 917 l 394 764 l 314 764 l 314 594 l 446 594 l 446 429 l 314 429 l 314 0 l 151 0 l 151 429 z "},"Ť":{"ha":381,"x_min":-12,"x_max":368,"o":"m 110 764 l 28 764 l 28 917 l 353 917 l 353 764 l 272 764 l 272 0 l 110 0 l 110 764 z "},"Ţ":{"ha":381,"x_min":-21,"x_max":353,"o":"m -21 -89 q 104 -93 78 -93 q 131 -91 125 -93 q 139 -83 136 -89 q 115 -61 144 -72 q 8 -33 85 -50 l 110 138 l 110 764 l 28 764 l 28 917 l 353 917 l 353 764 l 272 764 l 272 138 l 274 138 l 272 135 l 272 6 q 308 -83 308 -32 q 301 -126 308 -103 q 222 -216 283 -189 q 76 -243 161 -243 q -21 -235 25 -243 l -21 -89 z "},"Ț":{"ha":381,"x_min":18,"x_max":353,"o":"m 110 764 l 28 764 l 28 917 l 353 917 l 353 764 l 272 764 l 272 0 l 110 0 l 110 764 z "},"Ú":{"ha":401,"x_min":28,"x_max":390,"o":"m 200 -12 q 74 43 119 -12 q 28 179 28 99 l 28 917 l 192 917 l 192 179 q 193 151 192 157 q 200 144 194 144 q 207 150 206 144 q 208 179 208 156 l 208 917 l 374 917 l 374 179 q 327 44 374 100 q 200 -12 281 -12 z "},"Û":{"ha":401,"x_min":14,"x_max":394,"o":"m 200 -12 q 74 43 119 -12 q 28 179 28 99 l 28 917 l 192 917 l 192 179 q 193 151 192 157 q 200 144 194 144 q 207 150 206 144 q 208 179 208 156 l 208 917 l 374 917 l 374 179 q 327 44 374 100 q 200 -12 281 -12 z "},"Ü":{"ha":401,"x_min":-4,"x_max":419,"o":"m 200 -12 q 74 43 119 -12 q 28 179 28 99 l 28 917 l 192 917 l 192 179 q 193 151 192 157 q 200 144 194 144 q 207 150 206 144 q 208 179 208 156 l 208 917 l 374 917 l 374 179 q 327 44 374 100 q 200 -12 281 -12 m 99 942 q 26 972 56 942 q -4 1043 -4 1001 q 26 1122 -4 1090 q 99 1154 57 1154 q 172 1124 143 1154 q 201 1043 201 1093 q 171 972 201 1003 q 99 942 140 942 m 211 1044 q 242 1124 211 1093 q 315 1156 272 1156 q 390 1126 360 1156 q 419 1044 419 1096 q 388 973 419 1003 q 315 943 357 943 q 241 973 271 943 q 211 1044 211 1003 z "},"Ù":{"ha":401,"x_min":28,"x_max":374,"o":"m 200 -12 q 74 43 119 -12 q 28 179 28 99 l 28 917 l 192 917 l 192 179 q 193 151 192 157 q 200 144 194 144 q 207 150 206 144 q 208 179 208 156 l 208 917 l 374 917 l 374 179 q 327 44 374 100 q 200 -12 281 -12 z "},"Ű":{"ha":538,"x_min":43,"x_max":525,"o":"m 217 -12 q 90 43 136 -12 q 44 179 44 99 l 44 917 l 208 917 l 208 179 q 210 151 208 157 q 217 144 211 144 q 224 150 222 144 q 225 179 225 156 l 225 917 l 390 917 l 390 179 q 344 44 390 100 q 217 -12 297 -12 z "},"Ū":{"ha":401,"x_min":28,"x_max":407,"o":"m 200 -12 q 74 43 119 -12 q 28 179 28 99 l 28 917 l 192 917 l 192 179 q 193 151 192 157 q 200 144 194 144 q 207 150 206 144 q 208 179 208 156 l 208 917 l 374 917 l 374 179 q 327 44 374 100 q 200 -12 281 -12 m 36 1151 l 407 1151 l 407 986 l 36 986 l 36 1151 z "},"Ų":{"ha":401,"x_min":8,"x_max":374,"o":"m 317 -142 q 165 -186 242 -186 q 70 -161 110 -186 q 15 -94 31 -136 q 8 -49 8 -78 q 57 67 8 18 q 28 179 28 115 l 28 917 l 192 917 l 192 179 q 193 151 192 157 q 200 144 194 144 q 207 150 206 144 q 208 179 208 156 l 208 917 l 374 917 l 374 179 q 335 53 374 107 q 228 -11 296 -1 q 177 -30 190 -24 q 167 -42 164 -36 q 190 -44 169 -50 q 274 -7 211 -37 l 317 -142 z "},"Ů":{"ha":401,"x_min":28,"x_max":374,"o":"m 200 -12 q 74 43 119 -12 q 28 179 28 99 l 28 917 l 192 917 l 192 179 q 193 151 192 157 q 200 144 194 144 q 207 150 206 144 q 208 179 208 156 l 208 917 l 374 917 l 374 179 q 327 44 374 100 q 200 -12 281 -12 z "},"Ẃ":{"ha":617,"x_min":28,"x_max":589,"o":"m 28 917 l 189 917 l 233 581 l 250 653 l 367 653 l 385 579 l 428 917 l 589 917 l 472 0 l 322 0 l 308 301 l 293 0 l 142 0 l 28 917 z "},"Ŵ":{"ha":617,"x_min":28,"x_max":589,"o":"m 28 917 l 189 917 l 233 581 l 250 653 l 367 653 l 385 579 l 428 917 l 589 917 l 472 0 l 322 0 l 308 301 l 293 0 l 142 0 l 28 917 z "},"Ẅ":{"ha":617,"x_min":28,"x_max":589,"o":"m 28 917 l 189 917 l 233 581 l 250 653 l 367 653 l 385 579 l 428 917 l 589 917 l 472 0 l 322 0 l 308 301 l 293 0 l 142 0 l 28 917 m 196 938 q 123 967 153 938 q 93 1039 93 997 q 124 1118 93 1086 q 196 1150 154 1150 q 269 1119 240 1150 q 299 1039 299 1089 q 268 968 299 999 q 196 938 238 938 m 308 1040 q 339 1120 308 1089 q 413 1151 369 1151 q 487 1122 457 1151 q 517 1040 517 1092 q 485 969 517 999 q 413 939 454 939 q 338 969 368 939 q 308 1040 308 999 z "},"Ẁ":{"ha":617,"x_min":28,"x_max":589,"o":"m 28 917 l 189 917 l 233 581 l 250 653 l 367 653 l 385 579 l 428 917 l 589 917 l 472 0 l 322 0 l 308 301 l 293 0 l 142 0 l 28 917 z "},"Ý":{"ha":444,"x_min":28,"x_max":417,"o":"m 140 431 l 28 917 l 194 917 l 222 786 l 250 917 l 417 917 l 304 431 l 304 0 l 140 0 l 140 431 z "},"Ŷ":{"ha":444,"x_min":28,"x_max":417,"o":"m 140 431 l 28 917 l 194 917 l 222 786 l 250 917 l 417 917 l 304 431 l 304 0 l 140 0 l 140 431 z "},"Ÿ":{"ha":444,"x_min":11,"x_max":435,"o":"m 140 431 l 28 917 l 194 917 l 222 786 l 250 917 l 417 917 l 304 431 l 304 0 l 140 0 l 140 431 m 114 953 q 41 983 71 953 q 11 1054 11 1013 q 42 1133 11 1101 q 114 1165 72 1165 q 188 1135 158 1165 q 217 1054 217 1104 q 186 983 217 1014 q 114 953 156 953 m 226 1056 q 257 1135 226 1104 q 331 1167 288 1167 q 405 1137 375 1167 q 435 1056 435 1107 q 403 984 435 1014 q 331 954 372 954 q 256 984 286 954 q 226 1056 226 1014 z "},"Ỳ":{"ha":444,"x_min":28,"x_max":417,"o":"m 140 431 l 28 917 l 194 917 l 222 786 l 250 917 l 417 917 l 304 431 l 304 0 l 140 0 l 140 431 z "},"Ź":{"ha":369,"x_min":28,"x_max":365,"o":"m 28 121 l 172 761 l 28 761 l 28 917 l 342 917 l 342 796 l 199 156 l 342 156 l 342 0 l 28 0 l 28 121 z "},"Ž":{"ha":369,"x_min":-8,"x_max":372,"o":"m 28 121 l 172 761 l 28 761 l 28 917 l 342 917 l 342 796 l 199 156 l 342 156 l 342 0 l 28 0 l 28 121 z "},"Ż":{"ha":369,"x_min":28,"x_max":342,"o":"m 28 121 l 172 761 l 28 761 l 28 917 l 342 917 l 342 796 l 199 156 l 342 156 l 342 0 l 28 0 l 28 121 z "},"á":{"ha":399,"x_min":28,"x_max":371,"o":"m 199 -14 q 72 36 117 -14 q 28 165 28 86 l 28 321 q 72 451 28 400 q 199 501 117 501 l 207 501 l 207 532 q 206 554 207 550 q 199 558 204 558 q 192 552 193 558 q 192 532 192 546 l 192 511 l 28 511 l 28 538 q 72 667 28 617 q 199 718 117 718 q 325 667 279 718 q 371 538 371 617 l 371 165 q 325 36 371 86 q 199 -14 279 -14 m 192 168 q 192 149 192 156 q 199 142 193 142 q 206 147 204 142 q 207 168 207 151 l 207 342 l 199 342 q 192 337 193 342 q 192 319 192 332 l 192 168 z "},"ă":{"ha":475,"x_min":28,"x_max":447,"o":"m 226 -14 q 100 36 144 -14 q 56 165 56 86 l 56 321 q 100 451 56 400 q 226 501 144 501 l 235 501 l 235 532 q 233 554 235 550 q 226 558 232 558 q 220 552 221 558 q 219 532 219 546 l 219 511 l 56 511 l 56 538 q 100 667 56 617 q 226 718 144 718 q 353 667 307 718 q 399 538 399 617 l 399 165 q 353 36 399 86 q 226 -14 307 -14 m 219 168 q 220 149 219 156 q 226 142 221 142 q 233 147 232 142 q 235 168 235 151 l 235 342 l 226 342 q 220 337 221 342 q 219 319 219 332 l 219 168 z "},"â":{"ha":399,"x_min":-14,"x_max":371,"o":"m 199 -14 q 72 36 117 -14 q 28 165 28 86 l 28 321 q 72 451 28 400 q 199 501 117 501 l 207 501 l 207 532 q 206 554 207 550 q 199 558 204 558 q 192 552 193 558 q 192 532 192 546 l 192 511 l 28 511 l 28 538 q 72 667 28 617 q 199 718 117 718 q 325 667 279 718 q 371 538 371 617 l 371 165 q 325 36 371 86 q 199 -14 279 -14 m 192 168 q 192 149 192 156 q 199 142 193 142 q 206 147 204 142 q 207 168 207 151 l 207 342 l 199 342 q 192 337 193 342 q 192 319 192 332 l 192 168 z "},"ä":{"ha":399,"x_min":-32,"x_max":392,"o":"m 199 -14 q 72 36 117 -14 q 28 165 28 86 l 28 321 q 72 451 28 400 q 199 501 117 501 l 207 501 l 207 532 q 206 554 207 550 q 199 558 204 558 q 192 552 193 558 q 192 532 192 546 l 192 511 l 28 511 l 28 538 q 72 667 28 617 q 199 718 117 718 q 325 667 279 718 q 371 538 371 617 l 371 165 q 325 36 371 86 q 199 -14 279 -14 m 192 168 q 192 149 192 156 q 199 142 193 142 q 206 147 204 142 q 207 168 207 151 l 207 342 l 199 342 q 192 337 193 342 q 192 319 192 332 l 192 168 m 71 739 q -2 769 28 739 q -32 840 -32 799 q -1 919 -32 888 q 71 951 29 951 q 144 921 115 951 q 174 840 174 890 q 143 769 174 800 q 71 739 113 739 m 183 842 q 214 922 183 890 q 288 953 244 953 q 362 923 332 953 q 392 842 392 893 q 360 770 392 800 q 288 740 329 740 q 213 770 243 740 q 183 842 183 800 z "},"à":{"ha":399,"x_min":4,"x_max":371,"o":"m 199 -14 q 72 36 117 -14 q 28 165 28 86 l 28 321 q 72 451 28 400 q 199 501 117 501 l 207 501 l 207 532 q 206 554 207 550 q 199 558 204 558 q 192 552 193 558 q 192 532 192 546 l 192 511 l 28 511 l 28 538 q 72 667 28 617 q 199 718 117 718 q 325 667 279 718 q 371 538 371 617 l 371 165 q 325 36 371 86 q 199 -14 279 -14 m 192 168 q 192 149 192 156 q 199 142 193 142 q 206 147 204 142 q 207 168 207 151 l 207 342 l 199 342 q 192 337 193 342 q 192 319 192 332 l 192 168 z "},"ā":{"ha":399,"x_min":8,"x_max":379,"o":"m 199 -14 q 72 36 117 -14 q 28 165 28 86 l 28 321 q 72 451 28 400 q 199 501 117 501 l 207 501 l 207 532 q 206 554 207 550 q 199 558 204 558 q 192 552 193 558 q 192 532 192 546 l 192 511 l 28 511 l 28 538 q 72 667 28 617 q 199 718 117 718 q 325 667 279 718 q 371 538 371 617 l 371 165 q 325 36 371 86 q 199 -14 279 -14 m 192 168 q 192 149 192 156 q 199 142 193 142 q 206 147 204 142 q 207 168 207 151 l 207 342 l 199 342 q 192 337 193 342 q 192 319 192 332 l 192 168 m 8 949 l 379 949 l 379 783 l 8 783 l 8 949 z "},"ą":{"ha":399,"x_min":28,"x_max":371,"o":"m 346 -135 q 194 -179 271 -179 q 99 -154 139 -179 q 44 -87 60 -129 q 36 -42 36 -67 q 64 46 36 3 q 28 165 28 94 l 28 321 q 72 451 28 400 q 199 501 117 501 l 207 501 l 207 532 q 206 554 207 550 q 199 558 204 558 q 192 552 193 558 q 192 532 192 546 l 192 511 l 28 511 l 28 538 q 72 667 28 617 q 199 718 117 718 q 325 667 279 718 q 371 538 371 617 l 371 165 q 352 77 371 117 q 299 14 333 38 l 300 11 l 286 7 q 238 -11 268 -4 q 203 -26 213 -21 q 196 -35 194 -31 q 219 -37 199 -43 q 303 0 240 -31 l 346 -135 m 192 168 q 192 149 192 156 q 199 142 193 142 q 206 147 204 142 q 207 168 207 151 l 207 342 l 199 342 q 192 337 193 342 q 192 319 192 332 l 192 168 z "},"å":{"ha":399,"x_min":28,"x_max":371,"o":"m 199 -14 q 72 36 117 -14 q 28 165 28 86 l 28 321 q 72 451 28 400 q 199 501 117 501 l 207 501 l 207 532 q 206 554 207 550 q 199 558 204 558 q 192 552 193 558 q 192 532 192 546 l 192 511 l 28 511 l 28 538 q 72 667 28 617 q 199 718 117 718 q 325 667 279 718 q 371 538 371 617 l 371 165 q 325 36 371 86 q 199 -14 279 -14 m 192 168 q 192 149 192 156 q 199 142 193 142 q 206 147 204 142 q 207 168 207 151 l 207 342 l 199 342 q 192 337 193 342 q 192 319 192 332 l 192 168 z "},"ã":{"ha":399,"x_min":-19,"x_max":371,"o":"m 199 -14 q 72 36 117 -14 q 28 165 28 86 l 28 321 q 72 451 28 400 q 199 501 117 501 l 207 501 l 207 532 q 206 554 207 550 q 199 558 204 558 q 192 552 193 558 q 192 532 192 546 l 192 511 l 28 511 l 28 538 q 72 667 28 617 q 199 718 117 718 q 325 667 279 718 q 371 538 371 617 l 371 165 q 325 36 371 86 q 199 -14 279 -14 m -18 753 q 21 863 -19 815 q 118 911 61 911 q 157 904 136 911 l 193 893 q 211 890 204 890 q 243 921 229 890 l 368 892 q 319 791 358 832 q 235 750 281 750 q 201 756 217 750 l 168 768 q 142 775 151 775 q 125 767 132 775 q 110 740 118 760 l -18 753 m 192 168 q 192 149 192 156 q 199 142 193 142 q 206 147 204 142 q 207 168 207 151 l 207 342 l 199 342 q 192 337 193 342 q 192 319 192 332 l 192 168 z "},"æ":{"ha":592,"x_min":28,"x_max":564,"o":"m 197 -14 q 72 35 117 -14 q 28 160 28 83 l 28 311 q 72 437 28 388 q 197 486 117 486 l 206 486 l 206 515 q 204 538 206 533 q 197 542 203 542 q 191 535 192 542 q 190 515 190 529 l 190 496 l 28 496 l 28 521 q 72 647 28 597 q 197 696 117 696 q 279 679 244 696 q 392 717 324 717 q 518 666 472 717 q 564 536 564 615 l 564 449 q 518 322 564 371 q 392 274 472 274 l 385 274 l 385 168 q 385 147 385 153 q 392 142 386 142 q 399 145 399 142 q 400 168 400 149 l 400 238 l 564 238 l 564 165 q 518 36 564 86 q 392 -14 472 -14 q 294 11 338 -14 q 197 -14 251 -14 m 190 163 q 191 144 190 150 q 197 138 192 138 q 204 142 203 138 q 206 163 206 147 l 206 331 l 197 331 q 191 326 192 331 q 190 310 190 322 l 190 163 m 392 432 q 399 435 399 432 q 400 456 400 438 l 400 535 q 399 551 400 544 q 392 557 397 557 q 386 551 388 557 q 385 535 385 544 l 385 432 l 392 432 z "},"ć":{"ha":399,"x_min":28,"x_max":382,"o":"m 199 -12 q 72 38 117 -12 q 28 167 28 88 l 28 538 q 72 667 28 617 q 199 718 117 718 q 325 667 279 718 q 371 538 371 617 l 371 413 l 207 413 l 207 529 q 206 553 207 547 q 199 558 204 558 q 192 551 193 558 q 192 529 192 543 l 192 176 q 192 151 192 160 q 199 143 193 143 q 206 149 204 143 q 207 176 207 156 l 207 294 l 371 294 l 371 167 q 325 38 371 88 q 199 -12 279 -12 z "},"č":{"ha":399,"x_min":8,"x_max":389,"o":"m 199 -12 q 72 38 117 -12 q 28 167 28 88 l 28 538 q 72 667 28 617 q 199 718 117 718 q 325 667 279 718 q 371 538 371 617 l 371 413 l 207 413 l 207 529 q 206 553 207 547 q 199 558 204 558 q 192 551 193 558 q 192 529 192 543 l 192 176 q 192 151 192 160 q 199 143 193 143 q 206 149 204 143 q 207 176 207 156 l 207 294 l 371 294 l 371 167 q 325 38 371 88 q 199 -12 279 -12 z "},"ç":{"ha":399,"x_min":8,"x_max":371,"o":"m 8 -133 q 133 -137 107 -137 q 160 -135 154 -137 q 168 -128 165 -133 q 144 -106 174 -117 q 38 -78 114 -94 l 94 18 q 44 81 61 42 q 28 167 28 119 l 28 538 q 72 667 28 617 q 199 718 117 718 q 325 667 279 718 q 371 538 371 617 l 371 413 l 207 413 l 207 529 q 206 553 207 547 q 199 558 204 558 q 192 551 193 558 q 192 529 192 543 l 192 176 q 192 151 192 160 q 199 143 193 143 q 206 149 204 143 q 207 176 207 156 l 207 294 l 371 294 l 371 167 q 341 58 371 104 q 257 -4 311 13 q 317 -60 297 -28 q 338 -128 338 -92 q 331 -171 338 -147 q 251 -260 313 -233 q 106 -287 190 -287 q 8 -279 54 -287 l 8 -133 z "},"ċ":{"ha":399,"x_min":28,"x_max":371,"o":"m 199 -12 q 72 38 117 -12 q 28 167 28 88 l 28 538 q 72 667 28 617 q 199 718 117 718 q 325 667 279 718 q 371 538 371 617 l 371 413 l 207 413 l 207 529 q 206 553 207 547 q 199 558 204 558 q 192 551 193 558 q 192 529 192 543 l 192 176 q 192 151 192 160 q 199 143 193 143 q 206 149 204 143 q 207 176 207 156 l 207 294 l 371 294 l 371 167 q 325 38 371 88 q 199 -12 279 -12 z "},"ð":{"ha":497,"x_min":28,"x_max":513,"o":"m 172 396 l 28 396 l 28 561 l 172 561 l 172 917 l 317 917 q 466 872 419 917 q 513 742 513 826 l 513 174 q 467 44 513 89 q 317 0 421 0 l 172 0 l 172 396 m 336 156 q 348 160 346 157 q 350 174 350 164 l 350 742 q 348 756 350 753 q 336 761 346 760 l 336 561 l 349 561 l 349 396 l 336 396 l 336 156 z "},"ď":{"ha":399,"x_min":3,"x_max":383,"o":"m 200 -14 q 74 36 119 -14 q 28 165 28 86 l 28 538 q 74 667 28 617 q 200 718 119 718 l 207 718 l 207 917 l 371 917 l 371 165 q 326 36 371 86 q 200 -14 282 -14 m 192 168 q 193 149 192 157 q 200 142 194 142 q 206 149 204 142 q 207 168 207 157 l 207 536 q 200 558 207 558 q 192 536 192 558 l 192 168 z "},"đ":{"ha":497,"x_min":28,"x_max":513,"o":"m 172 396 l 28 396 l 28 561 l 172 561 l 172 917 l 317 917 q 466 872 419 917 q 513 742 513 826 l 513 174 q 467 44 513 89 q 317 0 421 0 l 172 0 l 172 396 m 336 156 q 348 160 346 157 q 350 174 350 164 l 350 742 q 348 756 350 753 q 336 761 346 760 l 336 561 l 349 561 l 349 396 l 336 396 l 336 156 z "},"é":{"ha":399,"x_min":28,"x_max":382,"o":"m 199 -12 q 72 38 117 -12 q 28 167 28 88 l 28 538 q 72 667 28 617 q 199 718 117 718 q 325 667 279 718 q 371 538 371 617 l 371 450 q 325 324 371 372 q 199 275 279 275 l 192 275 l 192 169 q 192 149 192 154 q 199 143 193 143 q 206 147 206 143 q 207 169 207 150 l 207 239 l 371 239 l 371 167 q 325 38 371 88 q 199 -12 279 -12 m 199 433 q 206 436 206 433 q 207 457 207 439 l 207 536 q 206 552 207 546 q 199 558 204 558 q 193 552 194 558 q 192 536 192 546 l 192 433 l 199 433 z "},"ě":{"ha":399,"x_min":8,"x_max":389,"o":"m 199 -12 q 72 38 117 -12 q 28 167 28 88 l 28 538 q 72 667 28 617 q 199 718 117 718 q 325 667 279 718 q 371 538 371 617 l 371 450 q 325 324 371 372 q 199 275 279 275 l 192 275 l 192 169 q 192 149 192 154 q 199 143 193 143 q 206 147 206 143 q 207 169 207 150 l 207 239 l 371 239 l 371 167 q 325 38 371 88 q 199 -12 279 -12 m 199 433 q 206 436 206 433 q 207 457 207 439 l 207 536 q 206 552 207 546 q 199 558 204 558 q 193 552 194 558 q 192 536 192 546 l 192 433 l 199 433 z "},"ê":{"ha":399,"x_min":6,"x_max":386,"o":"m 199 -12 q 72 38 117 -12 q 28 167 28 88 l 28 538 q 72 667 28 617 q 199 718 117 718 q 325 667 279 718 q 371 538 371 617 l 371 450 q 325 324 371 372 q 199 275 279 275 l 192 275 l 192 169 q 192 149 192 154 q 199 143 193 143 q 206 147 206 143 q 207 169 207 150 l 207 239 l 371 239 l 371 167 q 325 38 371 88 q 199 -12 279 -12 m 199 433 q 206 436 206 433 q 207 457 207 439 l 207 536 q 206 552 207 546 q 199 558 204 558 q 193 552 194 558 q 192 536 192 546 l 192 433 l 199 433 z "},"ë":{"ha":399,"x_min":-12,"x_max":411,"o":"m 199 -12 q 72 38 117 -12 q 28 167 28 88 l 28 538 q 72 667 28 617 q 199 718 117 718 q 325 667 279 718 q 371 538 371 617 l 371 450 q 325 324 371 372 q 199 275 279 275 l 192 275 l 192 169 q 192 149 192 154 q 199 143 193 143 q 206 147 206 143 q 207 169 207 150 l 207 239 l 371 239 l 371 167 q 325 38 371 88 q 199 -12 279 -12 m 199 433 q 206 436 206 433 q 207 457 207 439 l 207 536 q 206 552 207 546 q 199 558 204 558 q 193 552 194 558 q 192 536 192 546 l 192 433 l 199 433 m 90 746 q 17 776 47 746 q -12 847 -12 806 q 18 926 -12 894 q 90 958 49 958 q 164 928 135 958 q 193 847 193 897 q 163 776 193 807 q 90 746 132 746 m 203 849 q 233 928 203 897 q 307 960 264 960 q 381 930 351 960 q 411 849 411 900 q 380 777 411 807 q 307 747 349 747 q 233 777 263 747 q 203 849 203 807 z "},"ė":{"ha":399,"x_min":28,"x_max":371,"o":"m 199 -12 q 72 38 117 -12 q 28 167 28 88 l 28 538 q 72 667 28 617 q 199 718 117 718 q 325 667 279 718 q 371 538 371 617 l 371 450 q 325 324 371 372 q 199 275 279 275 l 192 275 l 192 169 q 192 149 192 154 q 199 143 193 143 q 206 147 206 143 q 207 169 207 150 l 207 239 l 371 239 l 371 167 q 325 38 371 88 q 199 -12 279 -12 m 199 433 q 206 436 206 433 q 207 457 207 439 l 207 536 q 206 552 207 546 q 199 558 204 558 q 193 552 194 558 q 192 536 192 546 l 192 433 l 199 433 z "},"è":{"ha":399,"x_min":24,"x_max":371,"o":"m 199 -12 q 72 38 117 -12 q 28 167 28 88 l 28 538 q 72 667 28 617 q 199 718 117 718 q 325 667 279 718 q 371 538 371 617 l 371 450 q 325 324 371 372 q 199 275 279 275 l 192 275 l 192 169 q 192 149 192 154 q 199 143 193 143 q 206 147 206 143 q 207 169 207 150 l 207 239 l 371 239 l 371 167 q 325 38 371 88 q 199 -12 279 -12 m 199 433 q 206 436 206 433 q 207 457 207 439 l 207 536 q 206 552 207 546 q 199 558 204 558 q 193 552 194 558 q 192 536 192 546 l 192 433 l 199 433 z "},"ē":{"ha":399,"x_min":28,"x_max":399,"o":"m 199 -12 q 72 38 117 -12 q 28 167 28 88 l 28 538 q 72 667 28 617 q 199 718 117 718 q 325 667 279 718 q 371 538 371 617 l 371 450 q 325 324 371 372 q 199 275 279 275 l 192 275 l 192 169 q 192 149 192 154 q 199 143 193 143 q 206 147 206 143 q 207 169 207 150 l 207 239 l 371 239 l 371 167 q 325 38 371 88 q 199 -12 279 -12 m 199 433 q 206 436 206 433 q 207 457 207 439 l 207 536 q 206 552 207 546 q 199 558 204 558 q 193 552 194 558 q 192 536 192 546 l 192 433 l 199 433 m 28 956 l 399 956 l 399 790 l 28 790 l 28 956 z "},"ę":{"ha":399,"x_min":21,"x_max":371,"o":"m 199 433 q 206 436 206 433 q 207 457 207 439 l 207 536 q 206 552 207 546 q 199 558 204 558 q 193 552 194 558 q 192 536 192 546 l 192 433 l 199 433 m 28 -90 q 21 -44 21 -74 q 57 57 21 11 q 28 167 28 103 l 28 538 q 72 667 28 617 q 199 718 117 718 q 325 667 279 718 q 371 538 371 617 l 371 450 q 325 324 371 372 q 199 275 279 275 l 192 275 l 192 169 q 192 149 192 154 q 199 143 193 143 q 206 147 206 143 q 207 169 207 150 l 207 239 l 371 239 l 371 167 q 333 47 371 96 q 228 -11 296 -1 q 179 -37 176 -29 q 203 -40 182 -46 q 286 -3 224 -33 l 329 -137 q 178 -182 254 -182 q 83 -157 122 -182 q 28 -90 43 -132 z "},"ğ":{"ha":431,"x_min":-4,"x_max":415,"o":"m 129 -150 l 185 -150 q 200 -144 193 -150 q 207 -126 207 -137 l 207 -12 l 199 -12 q 72 38 117 -12 q 28 167 28 88 l 28 539 q 72 669 28 618 q 199 719 117 719 q 292 696 251 719 q 364 707 328 707 q 400 704 375 707 l 400 558 l 371 558 l 371 539 l 369 -135 q 328 -269 369 -222 q 207 -317 286 -317 l 129 -317 l 129 -150 m 192 169 q 193 150 192 157 q 199 143 194 143 q 206 150 204 143 q 207 169 207 157 l 207 536 q 206 556 207 551 q 199 560 204 560 q 192 553 193 560 q 192 536 192 547 l 192 169 z "},"ģ":{"ha":431,"x_min":28,"x_max":400,"o":"m 124 749 l 221 983 l 390 983 l 294 749 l 124 749 m 129 -150 l 185 -150 q 200 -144 193 -150 q 207 -126 207 -137 l 207 -12 l 199 -12 q 72 38 117 -12 q 28 167 28 88 l 28 539 q 72 669 28 618 q 199 719 117 719 q 292 696 251 719 q 364 707 328 707 q 400 704 375 707 l 400 558 l 371 558 l 371 539 l 369 -135 q 328 -269 369 -222 q 207 -317 286 -317 l 129 -317 l 129 -150 m 192 169 q 193 150 192 157 q 199 143 194 143 q 206 150 204 143 q 207 169 207 157 l 207 536 q 206 556 207 551 q 199 560 204 560 q 192 553 193 560 q 192 536 192 547 l 192 169 z "},"ġ":{"ha":431,"x_min":28,"x_max":400,"o":"m 129 -150 l 185 -150 q 200 -144 193 -150 q 207 -126 207 -137 l 207 -12 l 199 -12 q 72 38 117 -12 q 28 167 28 88 l 28 539 q 72 669 28 618 q 199 719 117 719 q 292 696 251 719 q 364 707 328 707 q 400 704 375 707 l 400 558 l 371 558 l 371 539 l 369 -135 q 328 -269 369 -222 q 207 -317 286 -317 l 129 -317 l 129 -150 m 192 169 q 193 150 192 157 q 199 143 194 143 q 206 150 204 143 q 207 169 207 157 l 207 536 q 206 556 207 551 q 199 560 204 560 q 192 553 193 560 q 192 536 192 547 l 192 169 z "},"ħ":{"ha":492,"x_min":28,"x_max":464,"o":"m 121 0 l 121 726 l 28 726 l 28 892 l 121 892 l 121 917 l 285 917 l 285 892 l 390 892 l 390 726 l 285 726 l 285 718 l 292 718 q 418 667 372 718 q 464 538 464 617 l 464 0 l 300 0 l 300 529 q 299 553 300 547 q 292 558 297 558 q 285 551 286 558 q 285 529 285 543 l 285 0 l 121 0 z "},"ı":{"ha":219,"x_min":28,"x_max":192,"o":"m 28 704 l 192 704 l 192 0 l 28 0 l 28 704 z "},"í":{"ha":322,"x_min":28,"x_max":294,"o":"m 29 704 l 193 704 l 193 0 l 29 0 l 29 704 z "},"î":{"ha":436,"x_min":28,"x_max":408,"o":"m 115 704 l 279 704 l 279 0 l 115 0 l 115 704 z "},"ï":{"ha":479,"x_min":28,"x_max":451,"o":"m 153 704 l 317 704 l 317 0 l 153 0 l 153 704 m 131 757 q 58 787 88 757 q 28 858 28 817 q 58 938 28 906 q 131 969 89 969 q 204 939 175 969 q 233 858 233 908 q 203 788 233 818 q 131 757 172 757 m 243 860 q 274 940 243 908 q 347 971 304 971 q 422 941 392 971 q 451 860 451 911 q 420 788 451 818 q 347 758 389 758 q 273 788 303 758 q 243 860 243 818 z "},"ì":{"ha":322,"x_min":28,"x_max":294,"o":"m 111 704 l 275 704 l 275 0 l 111 0 l 111 704 z "},"ī":{"ha":426,"x_min":28,"x_max":399,"o":"m 110 704 l 274 704 l 274 0 l 110 0 l 110 704 m 28 951 l 399 951 l 399 786 l 28 786 l 28 951 z "},"į":{"ha":364,"x_min":28,"x_max":336,"o":"m 336 -143 q 185 -187 261 -187 q 90 -162 129 -187 q 35 -96 50 -137 q 28 -50 28 -72 q 52 33 28 -7 q 126 103 76 74 l 126 704 l 290 704 l 290 0 l 282 0 q 203 -28 222 -19 q 186 -43 183 -36 q 210 -45 189 -51 q 293 -8 231 -39 l 336 -143 z "},"ķ":{"ha":506,"x_min":28,"x_max":478,"o":"m 28 917 l 192 917 l 192 599 l 256 704 l 431 704 l 233 347 l 478 0 l 297 0 l 192 140 l 192 0 l 28 0 l 28 917 z "},"ĺ":{"ha":326,"x_min":28,"x_max":299,"o":"m 28 917 l 192 917 l 192 0 l 28 0 l 28 917 z "},"ľ":{"ha":451,"x_min":1,"x_max":382,"o":"m 107 917 l 271 917 l 271 0 l 107 0 l 107 917 z "},"ļ":{"ha":328,"x_min":28,"x_max":300,"o":"m 136 917 l 300 917 l 300 0 l 136 0 l 136 917 z "},"ł":{"ha":476,"x_min":28,"x_max":449,"o":"m 154 400 l 104 376 l 28 539 l 154 597 l 154 917 l 318 917 l 318 674 l 374 699 l 449 535 l 318 475 l 318 0 l 154 0 l 154 400 z "},"ń":{"ha":399,"x_min":28,"x_max":386,"o":"m 28 538 q 72 667 28 617 q 199 718 117 718 q 325 667 279 718 q 371 538 371 617 l 371 0 l 207 0 l 207 528 q 206 550 207 542 q 199 558 204 558 q 193 550 194 558 q 192 528 192 542 l 192 0 l 28 0 l 28 538 z "},"ň":{"ha":399,"x_min":13,"x_max":393,"o":"m 28 538 q 72 667 28 617 q 199 718 117 718 q 325 667 279 718 q 371 538 371 617 l 371 0 l 207 0 l 207 528 q 206 550 207 542 q 199 558 204 558 q 193 550 194 558 q 192 528 192 542 l 192 0 l 28 0 l 28 538 z "},"ņ":{"ha":399,"x_min":28,"x_max":371,"o":"m 28 538 q 72 667 28 617 q 199 718 117 718 q 325 667 279 718 q 371 538 371 617 l 371 0 l 207 0 l 207 528 q 206 550 207 542 q 199 558 204 558 q 193 550 194 558 q 192 528 192 542 l 192 0 l 28 0 l 28 538 z "},"ñ":{"ha":399,"x_min":-18,"x_max":411,"o":"m 28 538 q 72 667 28 617 q 199 718 117 718 q 325 667 279 718 q 371 538 371 617 l 371 0 l 207 0 l 207 528 q 206 550 207 542 q 199 558 204 558 q 193 550 194 558 q 192 528 192 542 l 192 0 l 28 0 l 28 538 m -17 743 q 2 830 -18 789 q 58 895 22 871 q 135 919 93 919 q 176 913 153 919 l 218 900 q 238 896 235 896 q 272 931 258 896 l 411 897 q 358 784 401 829 q 263 739 315 739 q 226 746 247 739 l 190 760 q 161 767 169 767 q 125 729 139 767 l -17 743 z "},"ŋ":{"ha":399,"x_min":28,"x_max":371,"o":"m 93 -18 q 132 -21 121 -21 q 189 -6 171 -21 q 207 40 207 8 l 207 553 q 206 572 207 569 q 199 575 206 575 q 192 570 193 575 q 192 553 192 565 l 192 0 l 28 0 l 28 554 q 72 684 28 633 q 199 735 117 735 q 325 684 279 735 q 371 554 371 633 l 371 38 q 339 -75 371 -22 q 252 -160 307 -128 q 133 -192 197 -192 q 93 -189 107 -192 l 93 -18 z "},"ó":{"ha":399,"x_min":28,"x_max":382,"o":"m 199 -14 q 72 36 117 -14 q 28 165 28 86 l 28 538 q 72 667 28 617 q 199 718 117 718 q 325 667 279 718 q 371 538 371 617 l 371 165 q 325 36 371 86 q 199 -14 279 -14 m 192 174 q 192 149 192 157 q 199 142 193 142 q 206 147 204 142 q 207 174 207 153 l 207 529 q 206 553 207 547 q 199 558 204 558 q 192 551 193 558 q 192 529 192 543 l 192 174 z "},"ô":{"ha":399,"x_min":6,"x_max":386,"o":"m 199 -14 q 72 36 117 -14 q 28 165 28 86 l 28 538 q 72 667 28 617 q 199 718 117 718 q 325 667 279 718 q 371 538 371 617 l 371 165 q 325 36 371 86 q 199 -14 279 -14 m 192 174 q 192 149 192 157 q 199 142 193 142 q 206 147 204 142 q 207 174 207 153 l 207 529 q 206 553 207 547 q 199 558 204 558 q 192 551 193 558 q 192 529 192 543 l 192 174 z "},"ö":{"ha":399,"x_min":-12,"x_max":411,"o":"m 199 -14 q 72 36 117 -14 q 28 165 28 86 l 28 538 q 72 667 28 617 q 199 718 117 718 q 325 667 279 718 q 371 538 371 617 l 371 165 q 325 36 371 86 q 199 -14 279 -14 m 192 174 q 192 149 192 157 q 199 142 193 142 q 206 147 204 142 q 207 174 207 153 l 207 529 q 206 553 207 547 q 199 558 204 558 q 192 551 193 558 q 192 529 192 543 l 192 174 m 90 753 q 17 783 47 753 q -12 854 -12 813 q 18 933 -12 901 q 90 965 49 965 q 164 935 135 965 q 193 854 193 904 q 163 783 193 814 q 90 753 132 753 m 203 856 q 233 935 203 904 q 307 967 264 967 q 381 937 351 967 q 411 856 411 907 q 380 784 411 814 q 307 754 349 754 q 233 784 263 754 q 203 856 203 814 z "},"ò":{"ha":399,"x_min":24,"x_max":371,"o":"m 199 -14 q 72 36 117 -14 q 28 165 28 86 l 28 538 q 72 667 28 617 q 199 718 117 718 q 325 667 279 718 q 371 538 371 617 l 371 165 q 325 36 371 86 q 199 -14 279 -14 m 192 174 q 192 149 192 157 q 199 142 193 142 q 206 147 204 142 q 207 174 207 153 l 207 529 q 206 553 207 547 q 199 558 204 558 q 192 551 193 558 q 192 529 192 543 l 192 174 z "},"ő":{"ha":538,"x_min":28,"x_max":510,"o":"m 208 -14 q 82 36 126 -14 q 38 165 38 86 l 38 538 q 82 667 38 617 q 208 718 126 718 q 335 667 289 718 q 381 538 381 617 l 381 165 q 335 36 381 86 q 208 -14 289 -14 m 201 174 q 202 149 201 157 q 208 142 203 142 q 215 147 214 142 q 217 174 217 153 l 217 529 q 215 553 217 547 q 208 558 214 558 q 202 551 203 558 q 201 529 201 543 l 201 174 z "},"ō":{"ha":399,"x_min":28,"x_max":399,"o":"m 199 -14 q 72 36 117 -14 q 28 165 28 86 l 28 538 q 72 667 28 617 q 199 718 117 718 q 325 667 279 718 q 371 538 371 617 l 371 165 q 325 36 371 86 q 199 -14 279 -14 m 192 174 q 192 149 192 157 q 199 142 193 142 q 206 147 204 142 q 207 174 207 153 l 207 529 q 206 553 207 547 q 199 558 204 558 q 192 551 193 558 q 192 529 192 543 l 192 174 m 28 963 l 399 963 l 399 797 l 28 797 l 28 963 z "},"ø":{"ha":668,"x_min":28,"x_max":640,"o":"m 326 -14 q 296 -11 315 -14 l 215 -226 l 28 -226 l 158 125 q 156 165 156 150 l 156 538 q 200 667 156 617 q 326 718 244 718 q 378 711 353 718 l 453 914 l 640 914 l 499 533 l 499 165 q 453 36 499 86 q 326 -14 407 -14 z "},"õ":{"ha":399,"x_min":-43,"x_max":428,"o":"m 199 -14 q 72 36 117 -14 q 28 165 28 86 l 28 538 q 72 667 28 617 q 199 718 117 718 q 325 667 279 718 q 371 538 371 617 l 371 165 q 325 36 371 86 q 199 -14 279 -14 m 192 174 q 192 149 192 157 q 199 142 193 142 q 206 147 204 142 q 207 174 207 153 l 207 529 q 206 553 207 547 q 199 558 204 558 q 192 551 193 558 q 192 529 192 543 l 192 174 z "},"œ":{"ha":597,"x_min":28,"x_max":569,"o":"m 199 -14 q 72 36 117 -14 q 28 165 28 86 l 28 538 q 72 667 28 617 q 199 718 117 718 q 293 694 253 718 q 397 725 335 725 q 524 674 478 725 q 569 544 569 624 l 569 457 q 524 331 569 379 q 397 282 478 282 l 390 282 l 390 176 q 391 156 390 161 q 397 150 392 150 q 405 153 404 150 q 406 176 406 157 l 406 246 l 569 246 l 569 174 q 524 44 569 94 q 397 -6 478 -6 q 304 18 343 -6 q 199 -14 261 -14 m 192 174 q 192 149 192 157 q 199 142 193 142 q 206 147 204 142 q 207 174 207 153 l 207 529 q 206 553 207 547 q 199 558 204 558 q 192 551 193 558 q 192 529 192 543 l 192 174 m 397 440 q 405 443 404 440 q 406 464 406 446 l 406 543 q 404 559 406 553 q 397 565 403 565 q 392 559 393 565 q 390 543 390 553 l 390 440 l 397 440 z "},"þ":{"ha":399,"x_min":28,"x_max":371,"o":"m 28 917 l 192 917 l 192 831 l 199 831 q 325 779 279 831 q 371 649 371 728 l 371 263 q 325 133 371 183 q 199 82 279 82 l 192 82 l 192 0 l 28 0 l 28 917 m 192 272 q 193 248 192 257 q 199 239 194 239 q 206 248 204 239 q 207 272 207 257 l 207 642 q 206 665 207 660 q 199 671 204 671 q 192 663 193 671 q 192 642 192 656 l 192 272 z "},"ŕ":{"ha":399,"x_min":28,"x_max":371,"o":"m 100 743 l 197 978 l 367 978 l 271 743 l 100 743 m 28 538 q 74 667 28 617 q 200 718 119 718 q 326 667 282 718 q 371 538 371 617 l 371 413 l 207 413 l 207 526 q 206 549 207 540 q 200 558 204 558 q 193 549 194 558 q 192 526 192 540 l 190 0 l 28 0 l 28 538 z "},"ř":{"ha":399,"x_min":-14,"x_max":371,"o":"m 28 538 q 74 667 28 617 q 200 718 119 718 q 326 667 282 718 q 371 538 371 617 l 371 413 l 207 413 l 207 526 q 206 549 207 540 q 200 558 204 558 q 193 549 194 558 q 192 526 192 540 l 190 0 l 28 0 l 28 538 z "},"ŗ":{"ha":399,"x_min":25,"x_max":371,"o":"m 28 538 q 74 667 28 617 q 200 718 119 718 q 326 667 282 718 q 371 538 371 617 l 371 413 l 207 413 l 207 526 q 206 549 207 540 q 200 558 204 558 q 193 549 194 558 q 192 526 192 540 l 190 0 l 28 0 l 28 538 z "},"ś":{"ha":400,"x_min":28,"x_max":382,"o":"m 199 -14 q 72 36 117 -14 q 28 167 28 86 l 28 263 l 192 263 l 192 176 q 193 153 192 161 q 199 144 194 144 q 206 153 204 144 q 207 176 207 161 l 207 264 q 205 283 207 279 q 189 289 203 286 q 70 356 111 308 q 29 481 29 404 l 29 538 q 74 667 29 617 q 200 718 118 718 q 326 667 281 718 q 372 538 372 617 l 372 482 l 207 482 l 207 529 q 206 551 207 543 q 200 558 206 558 q 193 553 194 558 q 192 529 192 547 l 192 479 q 197 457 192 463 q 221 444 201 451 q 334 379 297 415 q 371 271 371 343 l 371 167 q 325 37 371 88 q 199 -14 279 -14 z "},"š":{"ha":400,"x_min":8,"x_max":389,"o":"m 199 -14 q 72 36 117 -14 q 28 167 28 86 l 28 263 l 192 263 l 192 176 q 193 153 192 161 q 199 144 194 144 q 206 153 204 144 q 207 176 207 161 l 207 264 q 205 283 207 279 q 189 289 203 286 q 70 356 111 308 q 29 481 29 404 l 29 538 q 74 667 29 617 q 200 718 118 718 q 326 667 281 718 q 372 538 372 617 l 372 482 l 207 482 l 207 529 q 206 551 207 543 q 200 558 206 558 q 193 553 194 558 q 192 529 192 547 l 192 479 q 197 457 192 463 q 221 444 201 451 q 334 379 297 415 q 371 271 371 343 l 371 167 q 325 37 371 88 q 199 -14 279 -14 z "},"ş":{"ha":400,"x_min":28,"x_max":372,"o":"m 32 -146 q 157 -150 131 -150 q 183 -148 178 -150 q 192 -140 189 -146 q 167 -118 197 -129 q 61 -90 138 -107 l 117 3 q 51 68 74 25 q 28 167 28 111 l 28 263 l 192 263 l 192 176 q 193 153 192 161 q 199 144 194 144 q 206 153 204 144 q 207 176 207 161 l 207 264 q 205 283 207 279 q 189 289 203 286 q 70 356 111 308 q 29 481 29 404 l 29 538 q 74 667 29 617 q 200 718 118 718 q 326 667 281 718 q 372 538 372 617 l 372 482 l 207 482 l 207 529 q 206 551 207 543 q 200 558 206 558 q 193 553 194 558 q 192 529 192 547 l 192 479 q 197 457 192 463 q 221 444 201 451 q 334 379 297 415 q 371 271 371 343 l 371 167 q 350 72 371 114 q 290 8 329 31 l 278 -15 q 340 -71 319 -39 q 361 -139 361 -103 q 354 -183 361 -160 q 275 -273 336 -246 q 129 -300 214 -300 q 32 -292 78 -300 l 32 -146 z "},"ș":{"ha":400,"x_min":28,"x_max":372,"o":"m 199 -14 q 72 36 117 -14 q 28 167 28 86 l 28 263 l 192 263 l 192 176 q 193 153 192 161 q 199 144 194 144 q 206 153 204 144 q 207 176 207 161 l 207 264 q 205 283 207 279 q 189 289 203 286 q 70 356 111 308 q 29 481 29 404 l 29 538 q 74 667 29 617 q 200 718 118 718 q 326 667 281 718 q 372 538 372 617 l 372 482 l 207 482 l 207 529 q 206 551 207 543 q 200 558 206 558 q 193 553 194 558 q 192 529 192 547 l 192 479 q 197 457 192 463 q 221 444 201 451 q 334 379 297 415 q 371 271 371 343 l 371 167 q 325 37 371 88 q 199 -14 279 -14 z "},"ß":{"ha":396,"x_min":28,"x_max":368,"o":"m 28 758 q 51 836 28 800 q 111 894 74 872 q 192 915 149 915 q 273 894 235 915 q 334 836 311 872 q 357 758 357 800 l 357 554 q 336 489 357 511 q 368 399 368 454 l 368 168 q 326 47 368 89 q 192 0 283 6 l 193 150 q 202 157 199 151 q 206 171 206 163 l 206 381 q 203 393 206 390 q 196 397 201 396 l 196 544 q 204 547 203 544 q 206 557 206 550 l 206 768 q 196 786 206 786 q 186 768 186 786 l 181 0 l 28 0 l 28 758 z "},"ŧ":{"ha":379,"x_min":28,"x_max":351,"o":"m 89 378 l 28 378 l 28 543 l 89 543 l 89 917 l 251 917 l 253 704 l 344 704 l 344 551 l 253 551 l 253 543 l 351 543 l 351 378 l 253 378 l 253 0 l 89 0 l 89 378 z "},"ť":{"ha":311,"x_min":-74,"x_max":307,"o":"m 28 917 l 190 917 l 192 704 l 283 704 l 283 551 l 192 551 l 192 0 l 28 0 l 28 917 z "},"ţ":{"ha":311,"x_min":-103,"x_max":283,"o":"m -103 -165 q 22 -169 -6 -169 q 49 -167 43 -169 q 57 -160 54 -165 q 33 -137 63 -149 q -74 -110 3 -126 l 28 61 l 28 917 l 190 917 l 192 704 l 283 704 l 283 551 l 192 551 l 192 0 l 161 0 l 143 -35 q 206 -90 185 -58 q 226 -158 226 -122 q 219 -203 226 -179 q 140 -292 201 -265 q -6 -319 79 -319 q -103 -311 -57 -319 l -103 -165 z "},"ț":{"ha":383,"x_min":28,"x_max":356,"o":"m 100 917 l 263 917 l 264 704 l 356 704 l 356 551 l 264 551 l 264 0 l 100 0 l 100 917 z "},"ú":{"ha":399,"x_min":28,"x_max":382,"o":"m 199 -14 q 72 36 117 -14 q 28 167 28 86 l 28 704 l 192 704 l 192 178 q 193 153 192 163 q 199 144 194 144 q 206 153 204 144 q 207 178 207 163 l 207 704 l 371 704 l 371 167 q 325 37 371 88 q 199 -14 279 -14 z "},"û":{"ha":399,"x_min":6,"x_max":386,"o":"m 199 -14 q 72 36 117 -14 q 28 167 28 86 l 28 704 l 192 704 l 192 178 q 193 153 192 163 q 199 144 194 144 q 206 153 204 144 q 207 178 207 163 l 207 704 l 371 704 l 371 167 q 325 37 371 88 q 199 -14 279 -14 z "},"ü":{"ha":399,"x_min":-12,"x_max":411,"o":"m 199 -14 q 72 36 117 -14 q 28 167 28 86 l 28 704 l 192 704 l 192 178 q 193 153 192 163 q 199 144 194 144 q 206 153 204 144 q 207 178 207 163 l 207 704 l 371 704 l 371 167 q 325 37 371 88 q 199 -14 279 -14 m 90 731 q 17 760 47 731 q -12 832 -12 790 q 18 911 -12 879 q 90 943 49 943 q 164 913 135 943 q 193 832 193 882 q 163 761 193 792 q 90 731 132 731 m 203 833 q 233 913 203 882 q 307 944 264 944 q 381 915 351 944 q 411 833 411 885 q 380 762 411 792 q 307 732 349 732 q 233 762 263 732 q 203 833 203 792 z "},"ù":{"ha":399,"x_min":24,"x_max":371,"o":"m 199 -14 q 72 36 117 -14 q 28 167 28 86 l 28 704 l 192 704 l 192 178 q 193 153 192 163 q 199 144 194 144 q 206 153 204 144 q 207 178 207 163 l 207 704 l 371 704 l 371 167 q 325 37 371 88 q 199 -14 279 -14 z "},"ű":{"ha":538,"x_min":28,"x_max":510,"o":"m 208 -14 q 82 36 126 -14 q 38 167 38 86 l 38 704 l 201 704 l 201 178 q 203 153 201 163 q 208 144 204 144 q 215 153 214 144 q 217 178 217 163 l 217 704 l 381 704 l 381 167 q 335 37 381 88 q 208 -14 289 -14 z "},"ū":{"ha":399,"x_min":28,"x_max":399,"o":"m 199 -14 q 72 36 117 -14 q 28 167 28 86 l 28 704 l 192 704 l 192 178 q 193 153 192 163 q 199 144 194 144 q 206 153 204 144 q 207 178 207 163 l 207 704 l 371 704 l 371 167 q 325 37 371 88 q 199 -14 279 -14 m 28 940 l 399 940 l 399 775 l 28 775 l 28 940 z "},"ų":{"ha":399,"x_min":28,"x_max":371,"o":"m 338 -140 q 186 -185 263 -185 q 91 -160 131 -185 q 36 -93 51 -135 q 29 -47 29 -69 q 63 49 29 6 q 28 167 28 96 l 28 704 l 192 704 l 192 178 q 193 153 192 163 q 199 144 194 144 q 206 153 204 144 q 207 178 207 163 l 207 704 l 371 704 l 371 167 q 350 72 371 114 q 290 8 329 31 l 292 6 q 206 -26 225 -17 q 188 -40 186 -35 q 211 -42 190 -49 q 294 -6 232 -36 l 338 -140 z "},"ů":{"ha":399,"x_min":28,"x_max":371,"o":"m 199 -14 q 72 36 117 -14 q 28 167 28 86 l 28 704 l 192 704 l 192 178 q 193 153 192 163 q 199 144 194 144 q 206 153 204 144 q 207 178 207 163 l 207 704 l 371 704 l 371 167 q 325 37 371 88 q 199 -14 279 -14 z "},"ẃ":{"ha":589,"x_min":28,"x_max":561,"o":"m 28 704 l 193 704 l 201 314 l 214 704 l 379 704 l 392 314 l 396 704 l 561 704 l 468 0 l 306 0 l 299 300 l 289 0 l 126 0 l 28 704 z "},"ŵ":{"ha":589,"x_min":28,"x_max":561,"o":"m 28 704 l 193 704 l 201 314 l 214 704 l 379 704 l 392 314 l 396 704 l 561 704 l 468 0 l 306 0 l 299 300 l 289 0 l 126 0 l 28 704 z "},"ẅ":{"ha":589,"x_min":28,"x_max":561,"o":"m 28 704 l 193 704 l 201 314 l 214 704 l 379 704 l 392 314 l 396 704 l 561 704 l 468 0 l 306 0 l 299 300 l 289 0 l 126 0 l 28 704 m 189 751 q 116 781 146 751 q 86 853 86 811 q 117 932 86 900 q 189 964 147 964 q 263 933 233 964 q 292 853 292 903 q 261 782 292 813 q 189 751 231 751 m 301 854 q 332 934 301 903 q 406 965 363 965 q 480 935 450 965 q 510 854 510 906 q 478 783 510 813 q 406 753 447 753 q 331 783 361 753 q 301 854 301 813 z "},"ẁ":{"ha":589,"x_min":28,"x_max":561,"o":"m 28 704 l 193 704 l 201 314 l 214 704 l 379 704 l 392 314 l 396 704 l 561 704 l 468 0 l 306 0 l 299 300 l 289 0 l 126 0 l 28 704 z "},"ý":{"ha":410,"x_min":28,"x_max":392,"o":"m 128 38 l 28 704 l 193 704 l 207 286 l 217 704 l 382 704 l 292 33 l 250 -317 l 85 -317 l 128 38 z "},"ŷ":{"ha":410,"x_min":15,"x_max":396,"o":"m 128 38 l 28 704 l 193 704 l 207 286 l 217 704 l 382 704 l 292 33 l 250 -317 l 85 -317 l 128 38 z "},"ÿ":{"ha":410,"x_min":-3,"x_max":421,"o":"m 128 38 l 28 704 l 193 704 l 207 286 l 217 704 l 382 704 l 292 33 l 250 -317 l 85 -317 l 128 38 m 100 714 q 27 744 57 714 q -3 815 -3 774 q 28 894 -3 863 q 100 926 58 926 q 174 896 144 926 q 203 815 203 865 q 172 744 203 775 q 100 714 142 714 m 213 817 q 243 897 213 865 q 317 928 274 928 q 391 898 361 928 q 421 817 421 868 q 390 745 421 775 q 317 715 358 715 q 242 745 272 715 q 213 817 213 775 z "},"ỳ":{"ha":410,"x_min":28,"x_max":382,"o":"m 128 38 l 28 704 l 193 704 l 207 286 l 217 704 l 382 704 l 292 33 l 250 -317 l 85 -317 l 128 38 z "},"ź":{"ha":369,"x_min":28,"x_max":368,"o":"m 28 122 l 168 549 l 28 549 l 28 704 l 342 704 l 342 581 l 203 156 l 342 156 l 342 0 l 28 0 l 28 122 z "},"ž":{"ha":369,"x_min":-6,"x_max":375,"o":"m 28 122 l 168 549 l 28 549 l 28 704 l 342 704 l 342 581 l 203 156 l 342 156 l 342 0 l 28 0 l 28 122 z "},"ż":{"ha":369,"x_min":28,"x_max":342,"o":"m 28 122 l 168 549 l 28 549 l 28 704 l 342 704 l 342 581 l 203 156 l 342 156 l 342 0 l 28 0 l 28 122 z "},"μ":{"ha":444,"x_min":28,"x_max":417,"o":"m 28 704 l 192 704 l 192 183 q 193 157 192 168 q 199 146 194 146 q 206 157 204 146 q 207 183 207 168 l 207 704 l 371 704 l 371 168 q 377 132 371 139 q 395 124 383 125 q 417 122 407 124 l 417 -18 q 379 -21 392 -21 q 282 6 324 -21 q 206 -12 247 -12 l 192 -12 l 192 -100 l 28 -100 l 28 704 z "},"̈":{"ha":0,"x_min":28,"x_max":451,"o":"m 131 703 q 58 733 88 703 q 28 804 28 763 q 58 883 28 851 q 131 915 89 915 q 204 885 175 915 q 233 804 233 854 q 203 733 233 764 q 131 703 172 703 m 243 806 q 274 885 243 854 q 347 917 304 917 q 422 887 392 917 q 451 806 451 857 q 420 734 451 764 q 347 704 389 704 q 273 734 303 704 q 243 806 243 764 z "},"̇":{"ha":0,"x_min":28,"x_max":233,"o":"m 131 711 q 58 742 88 711 q 28 814 28 772 q 58 885 28 853 q 131 917 89 917 q 203 887 174 917 q 233 814 233 857 q 202 742 233 774 q 131 711 171 711 z "},"̀":{"ha":0,"x_min":28,"x_max":294,"o":"m 28 913 l 197 913 l 294 678 l 124 678 l 28 913 z "},"́":{"ha":0,"x_min":28,"x_max":294,"o":"m 28 681 l 125 915 l 294 915 l 199 681 l 28 681 z "},"̋":{"ha":0,"x_min":28,"x_max":510,"o":"m 139 917 l 310 917 l 203 675 l 28 675 l 139 917 m 338 917 l 510 917 l 401 675 l 226 675 l 338 917 z "},"̂":{"ha":0,"x_min":28,"x_max":408,"o":"m 221 968 l 408 646 l 229 649 l 218 669 l 206 647 l 28 647 l 221 968 z "},"̌":{"ha":0,"x_min":28,"x_max":408,"o":"m 206 914 l 218 892 l 229 913 l 408 915 l 221 593 l 28 914 l 206 914 z "},"̆":{"ha":0,"x_min":28,"x_max":447,"o":"m 235 706 q 94 767 151 706 q 28 935 38 829 l 185 935 q 203 878 190 892 q 235 864 217 864 q 265 877 253 864 q 283 935 276 890 l 447 935 q 372 766 425 826 q 235 706 318 706 z "},"̊":{"ha":0,"x_min":28,"x_max":306,"o":"m 167 621 q 65 667 101 621 q 28 769 28 714 q 65 872 28 826 q 168 918 101 918 q 269 872 233 918 q 306 769 306 826 q 269 667 306 714 q 167 621 232 621 m 143 768 q 149 752 143 760 q 167 744 156 744 q 184 752 178 744 q 190 768 190 760 q 184 786 190 778 q 167 794 178 794 q 149 786 156 794 q 143 768 143 778 z "},"̃":{"ha":0,"x_min":26,"x_max":497,"o":"m 28 656 q 49 750 26 706 q 110 821 71 794 q 194 847 149 847 q 240 840 221 847 l 285 826 q 294 824 289 825 q 306 822 299 822 q 344 860 329 822 l 497 824 q 439 701 486 751 q 335 651 392 651 q 294 658 313 651 l 254 674 q 222 682 229 682 q 201 673 210 682 q 183 640 193 664 l 28 656 z "},"̄":{"ha":0,"x_min":28,"x_max":399,"o":"m 28 961 l 399 961 l 399 796 l 28 796 l 28 961 z "},"̒":{"ha":0,"x_min":49,"x_max":307,"o":"m 138 915 l 307 915 l 218 682 l 49 682 l 138 915 z "},"̦":{"ha":0,"x_min":63,"x_max":329,"o":"m 63 -353 l 160 -118 l 329 -118 l 233 -353 l 63 -353 z "},"̧":{"ha":0,"x_min":28,"x_max":357,"o":"m 28 -18 q 153 -22 126 -22 q 179 -20 174 -22 q 188 -12 185 -18 q 163 10 193 -1 q 57 38 133 21 l 158 208 l 322 208 l 274 113 q 336 57 315 89 q 357 -11 357 25 q 350 -56 357 -32 q 271 -145 332 -118 q 125 -172 210 -172 q 28 -164 74 -172 l 28 -18 z "},"̨":{"ha":0,"x_min":28,"x_max":336,"o":"m 336 -85 q 185 -129 261 -129 q 90 -104 129 -129 q 35 -37 50 -79 q 28 8 28 -14 q 74 121 28 69 q 214 193 119 172 l 256 176 l 290 61 q 204 30 224 39 q 186 15 185 21 q 210 13 189 7 q 293 50 231 19 l 336 -85 z "},"˜":{"ha":525,"x_min":26,"x_max":497,"o":"m 28 656 q 49 750 26 706 q 110 821 71 794 q 194 847 149 847 q 240 840 221 847 l 285 826 q 294 824 289 825 q 306 822 299 822 q 344 860 329 822 l 497 824 q 439 701 486 751 q 335 651 392 651 q 294 658 313 651 l 254 674 q 222 682 229 682 q 201 673 210 682 q 183 640 193 664 l 28 656 z "}}}
